<?xml version="1.0" standalone="no"?>
<!DOCTYPE svg PUBLIC "-//W3C//DTD SVG 20010904//EN"
 "http://www.w3.org/TR/2001/REC-SVG-20010904/DTD/svg10.dtd">
<svg version="1.0" xmlns="http://www.w3.org/2000/svg"
 width="2160.000000pt" height="2160.000000pt" viewBox="0 0 2160.000000 2160.000000"
 preserveAspectRatio="xMidYMid meet">

<g transform="translate(0.000000,2160.000000) scale(0.100000,-0.100000)"
fill="#000000" stroke="none">
<path d="M14997 16624 c-10 -10 -9 -72 2 -78 5 -3 18 12 29 34 11 22 16 40 12
40 -5 0 -15 2 -22 5 -8 3 -17 2 -21 -1z"/>
<path d="M15035 16521 c-8 -15 15 -103 33 -124 21 -24 58 -19 54 8 -2 10 -12
30 -23 43 -10 14 -19 32 -19 41 0 30 -32 52 -45 32z"/>
<path d="M15140 16332 c0 -38 24 -71 41 -55 19 19 3 83 -21 83 -15 0 -20 -7
-20 -28z"/>
<path d="M15627 16344 c-4 -4 2 -13 13 -21 11 -8 20 -21 20 -29 0 -8 8 -14 18
-14 10 0 23 -5 30 -12 9 -9 12 -8 12 4 0 9 -10 18 -22 20 -14 2 -24 12 -28 28
-6 24 -29 37 -43 24z"/>
<path d="M12855 16250 c-38 -4 -89 -13 -113 -19 -24 -7 -95 -19 -158 -26 -64
-8 -145 -24 -181 -35 -36 -11 -75 -20 -86 -20 -12 0 -62 -13 -112 -29 -49 -16
-108 -34 -130 -40 -53 -13 -195 -64 -220 -77 -11 -6 -42 -17 -69 -23 -27 -7
-61 -20 -75 -31 -15 -10 -45 -23 -68 -29 -23 -6 -45 -16 -48 -21 -3 -4 -29
-16 -58 -26 -28 -9 -63 -25 -76 -35 -13 -11 -29 -19 -35 -19 -9 0 -140 -63
-201 -97 -11 -6 -59 -31 -108 -54 -48 -23 -92 -48 -98 -56 -7 -7 -16 -13 -21
-13 -6 0 -50 -25 -100 -55 -49 -30 -92 -55 -95 -55 -3 0 -37 -21 -75 -47 -39
-27 -77 -52 -86 -58 -10 -5 -48 -30 -85 -55 -37 -25 -82 -53 -99 -62 -16 -9
-40 -25 -52 -35 -11 -11 -32 -27 -46 -36 -14 -9 -43 -30 -65 -46 -22 -17 -56
-42 -75 -56 -79 -57 -100 -73 -174 -130 -43 -33 -92 -71 -111 -85 -18 -14 -52
-42 -76 -62 -24 -20 -107 -90 -184 -155 -133 -112 -201 -172 -269 -237 -17
-17 -62 -59 -101 -94 -130 -121 -387 -376 -513 -512 -70 -74 -135 -144 -147
-155 -66 -68 -248 -275 -397 -455 -88 -106 -146 -177 -307 -380 -11 -14 -33
-43 -50 -65 -16 -22 -44 -58 -61 -80 -36 -46 -74 -99 -110 -150 -14 -20 -37
-52 -52 -70 -16 -18 -28 -37 -28 -43 0 -5 -6 -15 -14 -22 -8 -6 -38 -45 -66
-86 -28 -42 -55 -81 -60 -87 -9 -11 -38 -54 -140 -207 -14 -21 -32 -48 -41
-61 -9 -13 -29 -45 -45 -72 -16 -26 -51 -83 -79 -126 -27 -44 -59 -94 -70
-112 -11 -19 -32 -54 -47 -79 -16 -25 -33 -56 -40 -70 -6 -14 -20 -34 -29 -45
-17 -20 -25 -35 -82 -148 -16 -31 -35 -61 -43 -68 -8 -6 -14 -17 -14 -23 0 -6
-8 -24 -17 -41 -9 -16 -29 -52 -44 -80 -15 -27 -60 -115 -99 -195 -39 -80 -78
-156 -86 -170 -8 -14 -22 -41 -30 -60 -8 -19 -26 -58 -39 -85 -14 -28 -25 -57
-25 -66 0 -8 -11 -30 -25 -49 -14 -19 -25 -41 -25 -49 0 -9 -6 -25 -13 -37 -6
-12 -25 -45 -40 -74 -22 -40 -31 -50 -40 -41 -18 18 -12 235 12 446 19 170 36
481 48 875 4 123 0 224 -11 340 -15 148 -20 171 -51 235 -35 74 -66 108 -128
143 -53 31 -95 27 -181 -14 -61 -29 -87 -49 -138 -107 -35 -40 -67 -79 -73
-88 -40 -64 -70 -105 -82 -112 -7 -4 -23 -27 -36 -49 -12 -23 -34 -62 -49 -87
-15 -25 -36 -64 -48 -86 -11 -22 -36 -67 -55 -100 -19 -33 -41 -76 -50 -95
-23 -52 -34 -73 -44 -90 -19 -29 -81 -165 -81 -176 0 -6 -8 -18 -18 -28 -11
-9 -24 -34 -31 -55 -6 -21 -18 -44 -26 -51 -7 -6 -19 -28 -26 -47 -6 -20 -22
-51 -35 -71 -13 -19 -24 -41 -24 -49 0 -8 -9 -31 -20 -51 -11 -20 -27 -53 -35
-72 -8 -19 -19 -42 -25 -50 -5 -8 -19 -35 -30 -60 -60 -131 -104 -188 -135
-176 -18 6 -17 32 5 136 6 25 17 118 25 208 8 89 21 200 29 245 8 45 22 143
31 217 8 74 22 157 30 183 8 26 19 116 25 200 7 84 18 177 26 207 8 30 21 130
29 222 9 93 22 196 30 230 8 35 20 135 25 223 6 88 17 186 25 218 18 70 35
244 35 352 0 45 7 132 15 195 8 63 16 172 17 242 3 141 -1 152 -58 164 -82 16
-135 -122 -154 -401 -6 -88 -20 -212 -30 -275 -11 -63 -24 -178 -30 -255 -5
-77 -16 -171 -24 -210 -8 -38 -20 -133 -25 -210 -6 -78 -18 -186 -26 -240 -8
-55 -20 -163 -25 -240 -6 -77 -17 -174 -25 -215 -8 -41 -21 -152 -30 -245 -8
-94 -22 -198 -30 -232 -8 -35 -22 -152 -30 -260 -9 -109 -20 -220 -25 -248
-15 -75 -31 -378 -24 -459 6 -64 10 -75 42 -108 29 -30 44 -38 72 -38 53 0
124 54 163 124 66 117 89 160 132 246 26 52 55 104 65 115 9 11 23 36 30 55 8
19 21 45 31 57 9 13 20 39 23 58 4 20 13 38 21 41 8 3 19 22 26 41 6 19 36 82
65 140 30 57 54 110 54 116 0 7 14 32 30 56 17 24 30 52 30 61 0 9 9 25 19 34
11 10 23 32 27 49 4 18 17 45 29 62 13 16 26 41 30 55 4 14 13 32 20 40 8 8
23 35 34 60 11 25 26 56 34 70 15 28 42 80 65 125 8 17 25 42 36 57 12 14 35
49 51 78 17 28 42 67 57 87 15 19 30 43 33 52 8 27 81 81 108 81 33 0 41 -11
74 -105 l28 -80 -1 -385 c0 -227 -6 -434 -13 -505 -19 -185 -30 -333 -41 -531
-6 -100 -17 -217 -25 -259 -8 -42 -17 -118 -21 -167 l-7 -90 -40 -29 c-22 -16
-56 -32 -76 -35 -20 -4 -56 -17 -81 -30 -25 -13 -52 -24 -61 -24 -9 0 -28 -9
-42 -21 -15 -11 -48 -27 -74 -36 -27 -9 -55 -21 -63 -28 -8 -7 -34 -18 -56
-24 -23 -6 -52 -19 -65 -30 -13 -10 -41 -23 -61 -30 -20 -7 -42 -19 -48 -27
-7 -7 -17 -14 -23 -14 -5 0 -29 -16 -53 -35 -23 -19 -46 -35 -51 -35 -5 0 -27
-18 -48 -40 -37 -38 -38 -41 -22 -57 26 -26 109 -21 155 10 20 14 48 28 62 32
14 4 37 16 52 26 14 11 33 19 41 19 9 0 28 11 44 24 16 14 43 28 59 32 16 3
43 17 61 30 17 13 38 24 46 24 8 0 35 11 61 25 26 14 53 25 59 25 7 0 39 13
72 29 72 34 121 45 131 29 11 -18 5 -81 -12 -135 -17 -52 -31 -275 -20 -317
14 -56 146 -54 167 2 6 15 16 34 23 42 8 8 19 33 26 55 7 22 23 58 35 80 13
22 28 57 34 77 7 20 18 42 26 48 8 6 19 35 25 65 6 29 20 70 30 91 11 21 20
48 20 59 0 29 53 110 85 131 14 9 53 23 87 31 33 8 77 22 97 32 20 10 56 22
81 26 25 4 58 14 74 22 16 9 64 20 105 25 42 5 95 18 120 29 24 10 73 24 110
29 36 6 82 19 101 29 19 10 64 23 100 30 36 7 92 20 125 31 33 10 87 21 120
25 33 3 98 17 145 29 47 13 112 27 145 30 33 4 94 13 135 21 41 8 131 21 200
30 69 9 148 22 175 30 28 8 122 19 210 25 88 6 201 15 250 21 50 5 133 14 185
19 119 12 881 12 935 1 112 -24 147 -36 156 -53 8 -16 4 -21 -25 -33 -20 -8
-38 -15 -41 -15 -3 0 -18 -8 -33 -19 -15 -10 -52 -34 -82 -53 -258 -164 -349
-235 -423 -331 l-49 -62 4 -79 3 -79 45 -39 c49 -42 160 -108 182 -108 7 0 30
-9 50 -20 20 -10 67 -26 105 -35 37 -9 78 -22 89 -30 12 -8 50 -19 85 -24 64
-11 94 -26 68 -35 -8 -3 -34 -10 -59 -16 -24 -7 -55 -20 -68 -31 -14 -10 -32
-19 -42 -19 -9 0 -34 -11 -54 -25 -21 -14 -57 -30 -82 -35 -25 -6 -57 -19 -72
-30 -15 -11 -48 -24 -75 -30 -26 -5 -64 -19 -85 -30 -20 -11 -43 -20 -50 -20
-8 0 -44 -14 -82 -30 -38 -16 -76 -30 -84 -30 -9 0 -33 -7 -54 -16 -20 -9 -65
-27 -99 -40 -35 -13 -93 -36 -130 -50 -38 -14 -99 -37 -137 -50 -38 -13 -74
-28 -81 -34 -6 -5 -38 -16 -71 -23 -32 -8 -75 -24 -94 -35 -19 -11 -51 -23
-70 -27 -19 -4 -54 -16 -76 -26 -23 -10 -63 -23 -90 -29 -27 -6 -62 -19 -79
-29 -16 -11 -50 -22 -75 -26 -25 -4 -68 -18 -96 -31 -28 -13 -60 -24 -70 -24
-11 0 -38 -9 -59 -20 -22 -12 -70 -27 -108 -35 -37 -8 -77 -21 -90 -29 -12 -7
-44 -19 -71 -25 -27 -7 -65 -20 -85 -30 -20 -10 -56 -22 -81 -26 -25 -4 -67
-16 -94 -27 -27 -10 -74 -25 -105 -33 -70 -17 -195 -60 -240 -81 -19 -9 -57
-23 -85 -30 -28 -7 -76 -22 -106 -32 -30 -11 -76 -23 -102 -26 -41 -6 -48 -5
-58 14 -9 17 -8 25 4 39 8 9 22 37 31 61 9 24 21 51 29 60 12 14 31 49 70 130
9 19 23 46 31 60 7 14 35 68 60 120 26 52 55 104 65 115 10 11 26 36 37 56 52
104 93 189 93 194 0 6 31 75 85 190 21 46 29 79 26 113 -2 22 -40 52 -67 52
-60 0 -97 -43 -163 -190 -11 -25 -25 -52 -31 -60 -5 -8 -17 -31 -25 -50 -27
-60 -66 -134 -80 -150 -7 -8 -18 -32 -24 -52 -7 -20 -19 -42 -26 -48 -8 -7
-20 -30 -27 -51 -6 -22 -15 -39 -19 -39 -4 0 -31 -46 -59 -102 -29 -57 -66
-130 -84 -163 -91 -171 -151 -284 -167 -316 -10 -20 -39 -57 -64 -82 -44 -44
-61 -52 -210 -102 -27 -9 -75 -27 -105 -40 -30 -13 -68 -27 -84 -30 -46 -10
-96 -66 -96 -107 0 -57 42 -78 193 -93 83 -9 101 -24 92 -74 -4 -20 -13 -43
-20 -51 -7 -8 -32 -55 -55 -105 -95 -204 -114 -241 -131 -264 -11 -13 -19 -32
-19 -42 0 -21 -66 -156 -91 -184 -9 -11 -20 -34 -24 -52 -3 -18 -15 -43 -25
-55 -10 -13 -23 -42 -29 -65 -6 -22 -18 -46 -26 -53 -7 -6 -21 -34 -30 -61 -9
-27 -20 -51 -25 -54 -5 -3 -16 -27 -25 -54 -9 -27 -22 -55 -30 -61 -8 -6 -21
-35 -29 -65 -9 -29 -23 -58 -31 -65 -8 -7 -15 -18 -15 -25 0 -7 -13 -36 -29
-66 -15 -30 -34 -71 -40 -91 -7 -20 -19 -42 -27 -48 -7 -7 -14 -19 -14 -27 0
-9 -13 -41 -28 -72 -42 -81 -48 -125 -22 -151 45 -45 143 -4 165 70 4 14 15
36 25 50 9 14 22 40 29 59 6 19 18 42 26 51 8 9 21 36 30 60 9 24 22 51 29 60
8 8 19 34 25 56 6 23 18 44 26 47 7 3 20 25 27 49 7 24 23 58 35 77 13 19 23
40 23 48 0 8 9 28 20 44 12 15 26 43 32 61 6 18 19 44 28 58 9 14 23 41 30 60
8 19 22 46 32 59 10 13 18 31 18 40 0 10 13 38 30 64 16 26 30 52 30 58 0 5
11 31 25 57 14 26 25 54 25 63 0 9 11 32 24 52 13 19 27 46 31 58 4 13 15 33
25 44 10 11 23 38 29 60 6 22 22 56 36 75 14 19 25 39 25 45 0 17 62 137 88
169 12 16 22 35 22 43 0 28 54 36 245 34 207 -1 444 -16 497 -32 18 -5 103
-16 189 -24 85 -7 189 -23 230 -34 40 -11 115 -27 164 -35 225 -38 285 -50
350 -72 39 -13 79 -24 90 -24 11 0 47 -14 80 -30 33 -16 67 -30 75 -31 16 0
124 -58 187 -100 21 -15 62 -50 90 -79 47 -48 53 -59 64 -123 15 -82 1 -190
-30 -235 -10 -15 -27 -41 -37 -58 -49 -82 -80 -118 -182 -213 -113 -105 -278
-235 -313 -246 -10 -4 -19 -10 -19 -14 0 -5 -15 -14 -32 -22 -18 -7 -46 -23
-61 -36 -16 -13 -35 -23 -42 -23 -7 0 -26 -11 -42 -23 -29 -25 -57 -41 -129
-77 -23 -11 -47 -26 -53 -34 -7 -8 -29 -20 -49 -27 -20 -6 -44 -17 -52 -24 -8
-7 -40 -25 -70 -39 -30 -14 -62 -30 -70 -35 -8 -5 -46 -24 -85 -42 -38 -17
-97 -44 -130 -59 -33 -16 -71 -31 -85 -35 -14 -4 -37 -16 -52 -26 -14 -11 -33
-19 -41 -19 -8 0 -34 -11 -59 -24 -25 -13 -60 -27 -79 -31 -19 -4 -49 -15 -67
-26 -17 -10 -56 -25 -85 -33 -28 -8 -72 -22 -96 -31 -35 -13 -113 -18 -380
-25 -187 -5 -383 -16 -441 -24 -58 -8 -215 -20 -350 -25 -275 -12 -324 -17
-395 -37 -27 -7 -116 -18 -196 -24 -139 -10 -182 -16 -309 -39 -30 -6 -111
-15 -179 -21 -68 -6 -149 -17 -180 -25 -31 -7 -103 -21 -161 -29 -58 -9 -123
-22 -145 -30 -22 -8 -74 -19 -116 -25 -42 -6 -96 -19 -120 -29 -24 -10 -57
-22 -74 -26 -94 -21 -200 -101 -219 -163 -11 -34 46 -101 93 -109 20 -4 56
-16 81 -27 37 -16 75 -21 210 -26 251 -9 575 4 700 27 58 11 143 23 190 26 47
4 116 13 155 21 38 8 124 22 189 31 66 8 134 21 152 29 18 7 77 19 131 25 54
7 113 18 131 26 19 7 75 20 126 29 50 8 105 21 121 29 17 8 64 20 105 26 41 7
88 19 103 27 16 8 64 20 107 28 44 8 89 19 100 25 11 6 55 18 97 26 43 8 87
21 99 29 13 8 42 17 66 21 24 4 66 17 93 29 28 13 77 30 110 38 33 8 80 23
105 32 36 14 100 19 320 25 151 5 318 12 370 15 101 7 2062 -23 2215 -34 l90
-6 3 -34 c2 -23 -3 -40 -18 -56 -16 -17 -21 -33 -18 -61 3 -32 7 -39 33 -46
44 -13 239 0 332 22 45 11 132 24 195 30 174 17 209 26 269 72 l54 40 160 -6
c88 -4 230 -13 315 -21 85 -8 279 -22 430 -30 151 -8 325 -22 385 -29 61 -8
211 -20 335 -26 124 -7 243 -15 265 -19 l40 -7 -45 -8 c-25 -4 -110 -16 -189
-26 -79 -11 -146 -22 -148 -24 -3 -3 -2 -10 3 -17 5 -9 78 -10 328 -3 340 10
523 10 561 0 34 -9 37 -31 7 -64 -15 -16 -54 -64 -87 -107 -33 -42 -73 -92
-90 -111 -16 -18 -39 -45 -50 -59 -80 -103 -345 -372 -475 -483 -120 -102
-129 -109 -190 -153 -30 -22 -66 -48 -78 -59 -13 -11 -30 -20 -37 -20 -7 0
-19 -7 -26 -17 -8 -9 -33 -25 -57 -35 -24 -11 -46 -26 -48 -33 -3 -8 -19 -17
-35 -20 -16 -4 -42 -17 -57 -29 -15 -13 -44 -26 -65 -30 -21 -4 -47 -18 -59
-32 -15 -17 -32 -24 -57 -24 -51 0 -113 -19 -108 -33 8 -27 144 -19 173 10 8
9 36 20 62 24 25 5 55 18 66 28 12 11 39 24 62 30 22 6 49 20 59 31 10 11 24
20 30 20 7 0 29 14 50 30 21 16 44 30 51 30 7 0 25 11 40 25 15 14 33 25 40
25 7 0 19 8 26 18 7 10 27 27 43 37 17 11 44 31 61 45 18 14 44 34 58 45 112
84 295 258 416 394 41 47 88 98 104 115 54 57 155 179 234 284 9 13 36 44 60
70 l43 47 112 -3 c142 -3 151 -10 114 -82 -15 -29 -27 -57 -27 -63 0 -7 -13
-39 -29 -72 -39 -82 -70 -160 -86 -219 -8 -26 -20 -55 -28 -65 -8 -9 -20 -43
-27 -76 -7 -33 -20 -80 -30 -105 -26 -68 -35 -208 -16 -254 15 -37 53 -60 81
-50 19 8 19 28 -1 81 -15 39 -15 48 -1 100 8 32 18 81 22 108 4 28 15 69 25
93 11 24 22 60 26 80 4 20 17 55 29 77 13 22 26 56 30 75 4 19 18 55 31 80 13
25 24 50 24 56 0 7 14 38 30 69 17 31 30 65 30 75 0 10 17 32 38 48 36 29 40
30 83 20 41 -10 54 -8 119 17 68 26 77 27 121 16 52 -13 100 -8 136 15 26 16
175 54 214 54 15 0 33 -7 40 -16 20 -24 13 -96 -16 -149 -14 -27 -25 -54 -25
-62 0 -7 -11 -35 -24 -61 -13 -26 -26 -59 -30 -74 -4 -17 -21 -37 -45 -52 -22
-14 -41 -29 -42 -35 -2 -5 -28 -14 -57 -19 -48 -9 -54 -8 -63 11 -9 15 -6 29
11 64 29 59 22 90 -24 99 -41 7 -82 -1 -144 -28 l-45 -20 -29 33 c-27 32 -30
33 -41 15 -7 -10 -22 -31 -34 -46 -13 -15 -32 -47 -43 -71 -11 -24 -27 -55
-35 -69 -19 -32 -19 -64 0 -80 15 -12 40 2 100 59 11 10 49 39 85 65 36 25 70
50 77 56 20 17 43 11 43 -10 0 -11 -7 -37 -16 -59 -15 -39 -15 -41 11 -76 30
-38 65 -46 100 -21 20 13 137 56 155 56 5 0 16 -15 23 -32 22 -53 42 -63 121
-62 92 0 142 11 164 33 9 10 33 23 52 30 30 10 36 9 47 -6 27 -39 35 -43 92
-43 42 0 65 5 82 19 13 10 40 21 60 25 32 6 39 3 53 -19 14 -22 23 -25 74 -25
31 0 68 7 82 15 113 65 144 72 180 42 26 -23 34 -24 72 -15 82 18 123 -19 53
-48 -31 -12 -35 -19 -35 -49 0 -20 7 -47 16 -60 13 -20 14 -30 4 -62 -7 -21
-18 -47 -25 -58 -6 -11 -18 -38 -25 -60 -12 -38 -21 -55 -93 -171 -43 -68
-103 -130 -141 -145 -17 -7 -51 -21 -75 -32 l-45 -19 -98 27 c-82 23 -103 33
-128 62 -42 47 -36 65 47 150 18 18 39 33 47 33 8 0 23 10 33 23 10 12 34 29
53 37 19 8 41 22 48 32 7 10 22 18 33 18 11 0 31 11 45 25 14 14 39 29 55 32
16 3 36 15 44 27 9 11 32 25 52 31 22 6 39 18 41 28 6 29 -63 23 -92 -8 -13
-14 -38 -28 -55 -31 -18 -4 -38 -15 -44 -25 -7 -11 -16 -19 -20 -19 -20 0 -77
-33 -77 -45 0 -7 -16 -16 -35 -19 -19 -4 -40 -15 -47 -25 -7 -10 -28 -26 -46
-35 -18 -9 -42 -26 -53 -37 -10 -10 -24 -19 -29 -19 -13 0 -81 -67 -102 -100
-33 -54 16 -147 90 -170 20 -7 53 -19 72 -28 55 -24 202 -21 262 6 26 12 54
22 62 22 24 0 175 156 196 203 11 23 24 49 30 57 18 29 80 165 80 178 0 7 11
34 24 60 13 26 27 62 31 81 9 41 93 128 133 138 67 16 95 61 34 55 -17 -2 -40
2 -52 8 -26 14 -21 46 20 135 61 132 51 145 -112 136 -92 -5 -110 -9 -130 -29
-14 -12 -29 -22 -35 -22 -11 0 -61 -56 -113 -127 -19 -26 -46 -57 -60 -70 -29
-25 -145 -67 -160 -58 -16 10 -12 51 9 87 29 52 33 83 13 102 -17 15 -22 11
-89 -67 -59 -71 -78 -86 -127 -105 -32 -12 -64 -22 -71 -22 -24 0 -24 51 1 98
29 54 31 88 5 101 -16 9 -23 5 -44 -22 -36 -47 -134 -147 -145 -147 -5 0 -21
-11 -35 -24 -16 -15 -43 -26 -75 -30 -52 -7 -77 -2 -103 21 -18 15 -13 55 15
128 8 22 15 49 16 60 0 12 9 38 20 60 11 21 26 62 35 90 8 29 22 58 31 65 8 8
22 27 31 44 9 17 24 37 34 44 14 10 16 18 9 36 -11 29 3 88 25 106 11 9 117
23 228 30 4 0 7 5 7 10 0 6 -17 10 -37 10 -83 0 -144 13 -154 31 -18 35 93
235 150 270 30 18 101 88 101 99 0 3 41 48 90 99 50 52 90 97 90 100 0 4 21
29 46 56 25 28 52 62 60 78 8 15 18 27 23 27 4 0 16 17 27 38 10 20 27 43 37
50 9 7 17 20 17 28 0 8 11 24 24 35 14 12 30 35 37 51 14 33 56 59 114 68 40
7 40 7 14 18 -38 15 -43 40 -17 78 16 23 32 34 59 38 20 3 42 13 50 22 11 14
10 19 -11 35 -33 25 -38 30 -54 54 -13 18 -15 16 -36 -33 -12 -28 -28 -57 -36
-63 -8 -6 -14 -24 -14 -40 0 -18 -8 -33 -21 -41 -11 -7 -30 -29 -42 -48 -11
-19 -29 -41 -39 -48 -10 -7 -18 -19 -18 -27 0 -8 -7 -18 -16 -23 -8 -4 -23
-20 -32 -34 -28 -43 -129 -172 -149 -190 -10 -9 -29 -33 -43 -53 -14 -20 -39
-53 -56 -73 -89 -105 -110 -128 -126 -140 -10 -7 -18 -20 -18 -27 0 -8 -11
-22 -25 -31 -14 -9 -25 -23 -25 -30 0 -8 -12 -19 -26 -24 -14 -6 -28 -19 -31
-30 -3 -11 -17 -23 -32 -26 -54 -12 -61 -16 -82 -47 -33 -48 -172 -187 -187
-187 -7 0 -15 -7 -18 -15 -4 -8 -26 -20 -51 -27 -38 -9 -50 -18 -75 -59 -20
-33 -39 -51 -56 -55 -15 -4 -37 -16 -50 -27 -31 -28 -141 -37 -176 -14 -20 14
-26 14 -35 3 -16 -19 -196 -32 -216 -16 -21 18 -18 63 6 94 11 14 25 43 31 64
5 20 16 44 24 53 8 8 20 36 28 62 7 25 23 58 35 73 11 15 21 33 21 41 0 7 14
39 30 70 17 31 30 63 30 72 0 10 11 32 25 51 14 19 25 40 25 47 0 7 14 39 30
70 17 31 30 62 30 69 0 7 11 30 25 50 14 20 25 44 25 53 0 9 9 31 21 50 11 18
27 52 36 75 9 22 22 48 28 56 7 8 18 32 25 53 6 21 22 57 35 80 13 23 26 53
30 67 4 14 13 32 20 40 7 8 18 33 25 55 7 22 24 56 36 75 13 19 24 41 24 49 0
8 11 33 24 55 13 23 26 55 30 71 4 17 16 39 26 50 9 11 23 38 30 60 7 22 19
49 26 61 8 11 23 47 34 79 22 63 18 75 -26 75 -15 0 -26 -10 -34 -30 -7 -16
-19 -35 -27 -42 -9 -7 -24 -31 -35 -53 -29 -59 -65 -124 -78 -140 -18 -22 -80
-126 -80 -135 0 -4 -7 -13 -16 -21 -8 -7 -26 -33 -40 -58 -13 -25 -44 -77 -69
-116 -24 -38 -44 -75 -45 -81 0 -6 -11 -21 -25 -34 -14 -13 -25 -29 -25 -35 0
-11 -26 -55 -76 -129 -10 -15 -28 -43 -39 -60 -43 -68 -64 -102 -85 -131 -20
-30 -81 -123 -198 -305 -34 -52 -65 -100 -70 -105 -4 -6 -33 -45 -63 -89 -30
-43 -66 -95 -81 -115 -15 -20 -35 -49 -44 -66 -9 -16 -30 -45 -45 -63 -16 -18
-29 -37 -29 -41 0 -5 -16 -21 -36 -36 l-35 -27 -119 16 c-66 9 -190 21 -277
26 -198 12 -261 18 -395 36 -59 7 -194 18 -300 24 -106 6 -245 17 -308 25
-143 17 -333 32 -515 40 -77 4 -187 13 -245 20 -58 8 -249 20 -425 25 -176 6
-363 14 -415 18 l-95 7 -3 28 c-2 16 3 36 10 45 8 10 22 33 31 52 10 19 31 58
47 85 16 28 39 69 50 92 11 23 24 45 29 47 5 3 21 29 35 58 15 29 40 76 56
103 16 28 39 69 50 92 11 23 25 45 30 48 5 3 19 25 30 48 12 23 33 63 48 89
63 110 126 215 143 240 11 15 19 30 19 33 0 4 14 26 30 50 17 24 30 48 30 53
0 5 9 20 19 33 23 30 51 77 90 151 17 31 34 58 38 60 11 4 62 109 65 133 3 21
-19 34 -127 77 -47 18 -79 23 -145 22 -75 0 -94 -4 -151 -32 -36 -18 -72 -32
-81 -32 -8 0 -23 -9 -33 -20 -10 -11 -23 -20 -29 -20 -10 0 -98 -66 -119 -89
-5 -5 -20 -21 -33 -36 -13 -14 -44 -56 -69 -92 -60 -87 -149 -171 -194 -182
-81 -20 -86 -20 -115 3 l-28 23 16 78 c20 98 20 149 0 166 -21 17 -108 15
-137 -4 -13 -9 -41 -31 -61 -51 -21 -19 -52 -46 -69 -60 -18 -13 -46 -37 -63
-53 -108 -99 -165 -126 -198 -94 -18 19 -18 20 17 83 67 120 233 272 342 313
44 17 45 17 101 -9 55 -26 56 -27 93 -9 31 15 36 22 33 47 -5 44 -59 104 -100
112 -57 11 -134 -3 -202 -36 -107 -53 -164 -84 -185 -102 -11 -9 -47 -39 -80
-66 -92 -76 -151 -154 -210 -277 -47 -97 -44 -136 17 -183 69 -53 151 -55 276
-5 65 26 86 39 155 94 18 14 46 33 63 41 29 14 32 14 43 -3 6 -10 11 -26 11
-35 0 -10 18 -34 40 -56 40 -37 42 -38 118 -38 68 0 142 13 194 35 12 5 21 -2
35 -28 10 -19 38 -51 61 -71 43 -36 45 -36 136 -36 64 0 98 -4 112 -14 19 -14
19 -15 -1 -38 -12 -13 -29 -39 -38 -58 -10 -19 -31 -57 -48 -85 -16 -27 -38
-69 -49 -91 -11 -23 -26 -47 -34 -53 -8 -7 -18 -25 -21 -41 -3 -15 -14 -35
-25 -45 -10 -9 -24 -31 -31 -48 -7 -18 -31 -59 -51 -92 -21 -33 -49 -83 -62
-110 -13 -28 -31 -56 -39 -63 -8 -7 -18 -25 -22 -39 -5 -23 -19 -43 -66 -100
-12 -16 24 -16 -946 2 -1073 19 -1543 33 -1570 47 -31 15 -29 34 5 42 15 4 53
20 84 37 31 16 64 29 71 29 8 0 26 9 40 20 14 11 45 27 68 35 24 9 50 22 59
29 8 8 26 17 40 21 14 4 39 18 57 31 17 13 38 24 46 24 8 0 30 11 50 24 19 13
44 27 55 30 11 4 37 20 57 36 21 17 43 30 50 30 7 0 19 7 26 17 8 9 33 25 56
35 23 10 45 23 48 28 4 6 23 19 43 31 34 18 94 58 117 77 6 5 24 17 40 28 17
10 36 27 43 36 7 10 19 18 26 18 18 0 196 151 273 231 95 99 144 168 199 279
35 72 37 80 38 180 1 102 0 107 -33 165 -39 69 -135 165 -189 190 -20 10 -46
25 -57 35 -11 9 -42 25 -70 35 -27 9 -80 28 -117 40 -37 13 -77 30 -90 39 -13
8 -50 19 -83 25 -33 6 -82 19 -110 30 -27 10 -73 21 -102 25 -28 4 -68 13 -88
22 -20 8 -77 21 -128 28 -51 8 -112 21 -137 30 -25 9 -106 21 -180 27 -74 5
-220 19 -325 30 -104 11 -288 23 -409 28 -197 6 -220 9 -232 26 -46 62 46 168
167 194 30 7 64 18 75 26 12 8 44 19 71 26 26 6 76 22 110 35 34 13 70 24 80
24 10 0 37 9 58 21 22 11 68 25 103 30 35 5 81 18 102 29 22 11 47 20 57 20
10 0 46 13 79 30 33 16 81 32 105 36 24 4 66 15 92 25 26 11 58 19 70 19 12 0
42 10 67 21 25 12 74 29 110 39 90 25 186 59 245 87 28 12 59 23 70 23 11 0
47 13 80 30 33 16 71 30 84 30 13 0 47 11 75 24 28 13 69 28 91 32 22 4 60 18
84 31 24 12 53 23 65 23 12 0 44 11 72 24 28 13 66 27 85 31 19 4 54 18 79 30
25 12 63 26 85 29 21 4 51 14 66 22 15 7 49 21 76 30 26 8 66 24 89 35 22 10
47 19 55 19 8 0 41 14 74 30 33 16 67 30 75 30 8 0 31 9 51 19 20 11 56 25 80
31 24 6 54 18 67 26 13 9 53 26 90 39 159 55 186 66 201 79 9 8 41 21 71 29
82 23 173 57 190 71 8 7 37 21 64 30 27 9 56 22 65 30 9 7 33 19 55 26 21 7
54 23 74 36 19 13 45 24 57 24 12 0 29 7 36 16 7 9 36 26 65 39 28 12 55 28
58 34 4 6 22 18 39 26 31 14 67 38 131 88 65 49 143 137 175 198 43 79 47 153
12 200 -24 32 -22 72 4 114 7 11 18 44 24 73 6 29 20 70 31 92 11 22 20 47 20
57 0 11 10 37 21 58 12 22 29 67 39 100 37 123 71 200 98 223 15 13 81 50 147
83 134 66 163 85 251 164 54 47 61 58 56 82 -7 39 -21 45 -50 22 -14 -10 -30
-19 -37 -19 -7 0 -18 -7 -25 -15 -7 -8 -32 -24 -56 -35 -24 -10 -44 -23 -44
-28 0 -14 -141 -84 -157 -78 -20 8 -16 95 6 136 10 19 23 58 29 87 6 28 21 70
33 92 24 48 30 131 10 155 -20 24 -81 20 -113 -7 -14 -12 -57 -69 -94 -127
-37 -58 -79 -117 -93 -132 -151 -157 -189 -191 -250 -219 -35 -16 -68 -29 -72
-29 -5 0 -16 17 -24 37 -13 31 -14 52 -6 121 7 52 18 93 29 110 11 15 23 38
27 52 4 14 19 47 33 73 20 40 23 54 15 80 -8 28 -13 32 -42 29 -17 -1 -43 -9
-57 -18 -26 -18 -107 -135 -119 -173 -10 -33 -68 -110 -105 -141 -16 -14 -42
-37 -57 -52 -14 -16 -29 -28 -33 -28 -4 0 -41 -22 -81 -49 -56 -37 -78 -47
-91 -40 -25 13 -48 61 -38 79 4 8 15 50 24 92 9 42 23 81 30 87 8 7 19 33 26
59 6 26 17 56 25 68 7 11 20 43 28 70 8 27 24 65 36 84 11 19 21 42 21 51 0 9
11 37 25 63 14 26 25 53 25 60 0 7 14 38 30 69 17 31 30 63 30 70 0 8 11 35
25 61 14 26 25 52 25 57 0 6 14 41 31 77 36 77 78 168 107 232 11 25 30 65 41
90 11 25 25 52 30 60 17 28 70 145 76 170 4 14 16 39 26 56 43 71 12 113 -75
100 -47 -7 -61 -22 -111 -116 -11 -21 -27 -46 -36 -56 -9 -11 -22 -36 -28 -56
-7 -20 -18 -41 -26 -48 -7 -6 -23 -30 -35 -53 -11 -23 -37 -69 -55 -102 -19
-33 -43 -79 -54 -101 -11 -23 -24 -45 -29 -48 -6 -3 -13 -20 -17 -37 -4 -16
-18 -42 -31 -56 -13 -14 -24 -31 -24 -38 0 -7 -11 -28 -24 -47 -13 -20 -29
-51 -35 -70 -7 -20 -21 -44 -31 -53 -11 -10 -20 -24 -20 -30 0 -7 -11 -28 -24
-48 -13 -19 -27 -46 -31 -58 -4 -13 -18 -36 -31 -51 -12 -16 -26 -38 -30 -50
-7 -24 -51 -87 -69 -100 -5 -4 -71 -8 -145 -8 -138 0 -187 -11 -305 -66 -53
-25 -156 -97 -172 -121 -35 -51 -68 -102 -87 -134 -28 -49 -77 -88 -161 -132
-135 -70 -185 -89 -216 -82 -41 9 -46 30 -21 79 11 23 26 60 32 83 6 23 15 45
20 48 14 8 22 86 12 120 -7 24 -18 34 -58 48 -43 16 -56 17 -114 6 -72 -13
-101 -24 -175 -69 -94 -56 -108 -60 -127 -43 -10 9 -15 20 -12 25 12 19 5 101
-9 115 -25 25 -71 7 -111 -42 -20 -24 -36 -48 -36 -53 0 -28 -191 -232 -263
-280 -159 -107 -305 -143 -447 -110 -61 14 -110 66 -110 116 0 37 56 96 80 86
8 -4 47 -9 85 -11 93 -7 224 32 273 80 76 75 92 102 92 155 0 47 -3 52 -42 84
-37 29 -50 33 -115 36 -160 9 -356 -89 -462 -230 -41 -55 -84 -183 -78 -231
10 -75 44 -122 116 -158 l66 -34 170 0 170 0 75 33 c41 18 88 39 104 47 30 16
56 7 56 -20 0 -21 35 -45 66 -45 29 0 114 47 144 79 8 9 49 45 90 81 41 35 83
72 93 82 10 10 22 18 27 18 6 0 19 9 30 20 17 17 74 58 119 85 9 5 28 17 43
27 27 18 28 18 39 -3 15 -28 5 -93 -21 -144 -14 -28 -20 -58 -20 -106 0 -69 7
-82 58 -109 49 -25 240 -2 282 34 8 8 25 17 37 20 12 4 38 20 59 37 27 21 47
29 68 27 27 -3 31 -8 41 -56 22 -94 82 -130 199 -117 101 12 198 66 324 182
31 29 60 53 63 53 4 0 26 25 49 55 24 31 60 74 80 96 l37 41 12 -29 c9 -23 8
-39 -10 -92 -18 -57 -19 -70 -8 -110 18 -63 77 -121 126 -122 79 -3 120 4 173
30 94 47 172 93 177 107 10 27 31 13 47 -31 17 -43 32 -56 95 -85 41 -18 141
-14 194 9 27 12 55 21 63 21 8 0 22 9 31 20 22 25 93 29 93 5 0 -8 -5 -15 -10
-15 -6 0 -16 -11 -22 -25 -6 -13 -20 -27 -32 -31 -22 -6 -136 -59 -217 -100
-26 -13 -54 -24 -62 -24 -8 0 -31 -11 -51 -25 -20 -14 -43 -25 -50 -25 -7 0
-38 -13 -69 -30 -31 -16 -62 -30 -69 -30 -8 0 -30 -11 -50 -25 -20 -14 -42
-25 -49 -25 -7 0 -42 -14 -78 -32 l-65 -32 -146 13 c-80 7 -183 16 -230 22
-118 13 -743 13 -865 0 -55 -6 -176 -15 -270 -21 -239 -14 -403 -30 -431 -40
-13 -5 -94 -16 -181 -25 -87 -9 -183 -22 -213 -30 -30 -7 -101 -18 -158 -25
-56 -6 -118 -18 -138 -26 -19 -8 -83 -21 -142 -29 -59 -8 -126 -21 -148 -29
-23 -8 -68 -18 -100 -22 -32 -4 -73 -13 -92 -21 -18 -7 -75 -20 -126 -28 -52
-7 -160 -36 -242 -64 -82 -27 -167 -53 -189 -57 -22 -4 -62 -15 -88 -25 -52
-20 -112 -25 -122 -9 -3 5 1 20 9 33 9 13 22 43 30 68 20 62 57 148 82 189 12
19 27 52 34 72 6 21 15 40 19 43 5 2 32 51 61 107 29 57 65 126 80 153 16 28
41 73 55 100 14 28 39 73 55 100 16 28 41 70 55 95 74 128 122 209 140 236 12
16 26 40 33 54 7 14 26 45 42 70 17 25 38 58 48 74 9 15 36 56 59 90 23 33 52
79 64 101 12 22 25 42 29 45 3 3 22 30 41 60 55 85 66 102 98 145 17 22 38 54
47 70 9 17 29 44 43 62 14 17 37 48 51 68 26 38 61 86 95 131 11 15 27 37 35
49 17 26 62 85 100 131 14 17 34 44 45 59 11 16 34 46 50 67 17 20 44 56 60
78 17 23 41 54 55 70 55 65 124 151 141 177 9 12 35 45 60 73 24 27 60 69 79
91 19 23 41 47 47 54 7 8 70 80 139 162 70 81 136 157 148 169 12 11 95 99
186 194 91 94 196 202 234 239 37 36 116 113 176 171 192 188 524 478 733 640
96 75 140 109 177 135 19 14 53 39 75 55 22 17 72 52 111 78 38 26 77 53 85
60 8 7 29 23 48 35 19 12 51 33 71 47 141 94 166 110 177 110 6 0 16 7 24 16
7 8 33 27 58 40 25 14 69 38 96 55 47 27 75 42 187 101 26 14 53 30 61 36 8 7
33 18 56 27 23 8 54 23 69 34 15 10 41 22 59 25 17 4 37 14 44 22 6 7 34 21
61 29 27 8 60 23 75 35 14 11 36 20 48 20 12 0 42 11 67 24 25 13 60 27 79 31
19 4 48 15 64 25 17 10 55 25 85 34 30 8 80 24 110 35 30 11 65 20 78 21 12 0
40 9 61 20 21 10 76 26 122 33 46 8 113 22 149 30 36 9 153 28 260 43 279 38
531 38 790 0 102 -16 212 -36 245 -46 33 -10 86 -23 117 -29 31 -6 74 -19 96
-30 21 -11 56 -23 77 -26 22 -4 54 -15 70 -25 17 -10 50 -24 75 -30 24 -7 55
-20 68 -31 14 -10 30 -19 36 -19 7 0 43 -16 82 -35 38 -19 75 -35 82 -35 6 0
12 -4 12 -9 0 -5 19 -18 43 -29 66 -31 300 -188 395 -264 26 -21 50 -38 54
-38 4 0 19 -20 34 -45 16 -28 35 -47 51 -51 13 -4 35 -16 47 -28 12 -11 42
-39 66 -62 25 -22 79 -78 120 -125 116 -131 150 -160 180 -157 16 2 30 13 38
31 19 38 5 69 -70 161 -86 104 -438 446 -475 461 -18 8 -33 18 -33 23 0 5 -32
31 -72 58 -40 27 -79 55 -88 62 -28 24 -85 61 -116 76 -17 7 -35 19 -39 26 -4
6 -26 20 -49 31 -22 11 -68 35 -101 54 -33 19 -71 40 -85 46 -14 6 -43 19 -65
29 -22 11 -65 29 -95 40 -30 12 -60 26 -65 30 -6 5 -33 14 -59 20 -27 6 -68
20 -93 31 -24 11 -69 25 -101 30 -31 6 -68 17 -82 24 -14 7 -75 20 -135 29
-61 9 -133 24 -160 33 -41 13 -109 16 -370 19 -176 1 -351 -1 -390 -6z m-2675
-4745 c19 -10 30 -23 30 -37 0 -30 -37 -86 -92 -140 -26 -25 -48 -51 -48 -56
0 -6 -51 -61 -113 -124 -128 -129 -177 -158 -215 -127 -40 32 -24 161 34 264
28 51 139 165 161 165 6 0 25 12 42 26 53 44 146 58 201 29z m-2002 -94 c3
-27 -2 -39 -30 -63 -65 -57 -137 -74 -177 -40 -17 14 -19 23 -13 46 12 43 110
96 172 93 43 -2 45 -3 48 -36z m3036 -615 c5 -25 0 -51 -17 -93 -14 -32 -27
-74 -31 -94 -7 -42 -74 -182 -84 -177 -4 2 -25 12 -47 21 -22 10 -60 28 -85
41 -25 13 -66 28 -93 35 -57 14 -157 60 -157 72 0 5 12 14 28 20 33 14 150 67
177 82 29 15 61 31 135 64 36 17 85 39 110 50 25 11 48 19 51 17 4 -2 10 -19
13 -38z m-595 -327 c71 -18 193 -68 241 -98 8 -6 31 -17 50 -26 19 -8 48 -25
64 -38 26 -21 29 -29 28 -81 0 -45 -6 -66 -26 -95 -14 -20 -26 -42 -26 -47 0
-34 -188 -264 -216 -264 -7 0 -28 -13 -46 -29 -18 -16 -50 -33 -72 -39 -21 -6
-46 -18 -55 -26 -26 -24 -125 -36 -285 -36 -126 1 -160 4 -206 21 -30 11 -80
27 -110 35 -30 9 -62 21 -70 28 -8 7 -31 19 -50 26 -19 7 -52 29 -72 49 -39
36 -45 64 -29 133 10 43 89 119 221 213 19 13 52 37 73 52 51 37 120 77 182
107 28 13 56 31 63 39 7 8 25 18 40 22 15 4 34 13 44 22 18 16 120 51 154 52
11 1 57 -8 103 -20z m281 -3103 c0 -24 -13 -52 -45 -97 -25 -35 -56 -80 -69
-99 -34 -51 -202 -207 -247 -230 -13 -7 -33 -20 -44 -30 -30 -27 -71 -30 -91
-9 -25 28 -12 106 30 184 19 35 41 72 48 81 33 43 146 147 173 159 17 8 41 21
55 29 14 8 54 26 90 39 78 30 100 24 100 -27z m3181 -938 c-5 -20 -16 -44 -25
-53 -9 -9 -16 -24 -16 -34 0 -10 -11 -38 -23 -62 -13 -24 -30 -62 -37 -84 -7
-22 -21 -50 -31 -63 -10 -13 -21 -37 -25 -55 -3 -18 -15 -44 -25 -58 -10 -14
-21 -38 -25 -55 -4 -16 -18 -45 -31 -64 -12 -19 -23 -41 -23 -49 0 -22 -88
-199 -110 -221 -17 -17 -33 -20 -103 -20 -55 0 -90 5 -102 14 -21 15 -25 7 63
117 17 23 32 46 32 53 0 7 11 23 25 36 14 13 25 28 25 34 0 5 10 20 22 33 12
13 31 39 42 58 12 19 48 73 81 121 33 48 65 95 71 105 6 10 18 27 26 36 9 10
25 37 37 61 12 23 25 42 29 42 5 0 16 17 26 37 10 21 26 43 37 51 10 7 19 20
19 28 0 9 5 25 11 36 9 17 13 18 25 7 9 -10 11 -24 5 -51z m-3701 -715 l55
-16 -40 -7 c-96 -17 -200 -21 -218 -8 -16 12 -16 14 -1 37 16 22 21 23 83 17
37 -3 91 -13 121 -23z m-4095 1 c9 -9 14 -18 13 -20 -2 -1 -46 -12 -97 -23
-51 -11 -99 -25 -105 -30 -6 -5 -39 -14 -74 -21 -34 -6 -84 -21 -110 -34 -26
-13 -76 -27 -112 -31 -36 -4 -92 -16 -125 -26 -33 -10 -94 -22 -135 -28 -41
-6 -95 -17 -119 -26 -24 -8 -99 -22 -166 -29 -67 -8 -149 -22 -181 -30 -33 -9
-123 -20 -199 -26 -77 -6 -174 -18 -215 -28 -61 -14 -124 -17 -340 -17 -146 0
-276 3 -290 7 -14 4 -38 19 -53 34 -22 20 -26 29 -16 40 6 8 16 14 21 14 6 0
33 11 60 25 28 14 82 30 121 35 39 6 99 19 132 29 33 11 88 22 120 26 33 4 94
15 136 26 42 10 143 26 224 34 82 9 168 20 192 25 24 6 125 17 226 25 100 8
214 20 252 26 65 11 520 34 732 37 73 2 95 -1 108 -14z m8253 -7 c16 -19 -3
-83 -31 -102 -12 -9 -43 -15 -74 -15 -44 0 -55 4 -68 24 -18 27 -10 56 15 56
10 0 24 7 31 16 27 33 107 46 127 21z m1079 -389 c26 -20 -7 -85 -80 -161 -42
-43 -95 -59 -116 -34 -16 21 -5 77 22 112 38 48 82 92 97 97 19 6 62 -2 77
-14z"/>
<path d="M15210 16231 c0 -11 5 -23 10 -26 6 -4 10 5 10 19 0 14 -4 26 -10 26
-5 0 -10 -9 -10 -19z"/>
<path d="M15765 16220 c3 -5 8 -10 11 -10 2 0 4 5 4 10 0 6 -5 10 -11 10 -5 0
-7 -4 -4 -10z"/>
<path d="M15270 16120 c0 -5 5 -10 10 -10 6 0 10 5 10 10 0 6 -4 10 -10 10 -5
0 -10 -4 -10 -10z"/>
<path d="M15375 15928 c-8 -31 0 -48 21 -48 18 0 18 30 0 56 -14 18 -15 18
-21 -8z"/>
<path d="M16035 15880 c-11 -34 5 -79 35 -100 34 -24 36 -24 44 -3 4 11 -6 36
-30 70 -20 29 -38 53 -40 53 -1 0 -6 -9 -9 -20z"/>
<path d="M13385 15620 c3 -5 10 -10 16 -10 5 0 9 5 9 10 0 6 -7 10 -16 10 -8
0 -12 -4 -9 -10z"/>
<path d="M13448 15583 c-10 -18 -2 -197 9 -200 20 -7 24 14 11 61 -9 34 -9 53
0 83 9 30 9 40 -2 51 -8 8 -16 10 -18 5z"/>
<path d="M12897 15440 c-10 -36 -9 -78 3 -85 15 -9 24 43 13 78 -9 32 -9 32
-16 7z"/>
<path d="M15590 15403 c1 -25 17 -34 43 -22 37 17 34 29 -8 29 -19 0 -35 -3
-35 -7z"/>
<path d="M16376 15373 c-7 -22 1 -53 14 -53 15 0 18 26 5 50 -12 23 -13 23
-19 3z"/>
<path d="M13497 15363 c-4 -3 -7 -19 -7 -35 0 -21 -5 -28 -18 -28 -26 0 -48
-27 -61 -74 -10 -40 -55 -96 -76 -96 -7 0 -10 -12 -7 -30 3 -23 14 -34 48 -50
24 -12 48 -19 53 -15 6 3 8 32 4 70 -6 61 -4 66 21 90 17 16 26 34 26 54 0 19
7 34 19 40 22 13 33 57 16 71 -6 5 -15 7 -18 3z"/>
<path d="M13395 15351 c-3 -5 -1 -12 5 -16 5 -3 10 1 10 9 0 18 -6 21 -15 7z"/>
<path d="M12835 15277 c-4 -20 -4 -45 0 -58 7 -22 8 -22 22 -3 16 22 14 86 -4
91 -7 3 -15 -10 -18 -30z"/>
<path d="M15690 15295 c-14 -17 -70 -21 -70 -5 0 6 -5 10 -11 10 -19 0 2 -64
32 -94 35 -36 57 -29 61 21 2 30 7 38 23 38 14 0 21 -8 23 -27 2 -14 10 -32
18 -38 12 -11 14 -6 14 29 0 28 -4 41 -14 41 -7 0 -16 9 -19 20 -6 24 -39 27
-57 5z"/>
<path d="M13338 15283 c-3 -11 -22 -23 -51 -30 -55 -15 -62 -33 -12 -33 46 0
85 19 85 42 0 10 0 21 1 25 1 16 -19 13 -23 -4z"/>
<path d="M16431 15268 c-1 -32 3 -39 23 -44 28 -7 49 2 41 17 -4 5 -17 9 -30
9 -18 0 -25 6 -28 28 -3 22 -4 20 -6 -10z"/>
<path d="M13225 15190 c-3 -5 -1 -10 4 -10 6 0 11 5 11 10 0 6 -2 10 -4 10 -3
0 -8 -4 -11 -10z"/>
<path d="M12770 15150 c-39 -54 -1 -89 50 -47 l29 25 -20 26 c-26 33 -33 33
-59 -4z"/>
<path d="M13115 15130 c-3 -5 -1 -10 4 -10 6 0 11 5 11 10 0 6 -2 10 -4 10 -3
0 -8 -4 -11 -10z"/>
<path d="M13481 15087 c-36 -36 7 -52 112 -42 81 7 108 18 91 35 -15 15 -189
21 -203 7z"/>
<path d="M13773 15083 c-18 -7 -16 -28 3 -43 13 -11 19 -10 36 8 12 12 20 23
17 25 -9 9 -45 15 -56 10z"/>
<path d="M13232 15040 c0 -19 2 -27 5 -17 2 9 2 25 0 35 -3 9 -5 1 -5 -18z"/>
<path d="M12726 15048 c-2 -7 -7 -25 -10 -40 -4 -19 -14 -28 -37 -33 -23 -5
-29 -11 -24 -23 4 -10 12 -33 18 -52 l10 -35 15 37 c8 21 23 40 33 43 27 9 55
73 42 94 -13 21 -42 26 -47 9z"/>
<path d="M12289 14929 c-14 -28 2 -46 30 -33 15 7 17 14 10 32 -11 28 -25 28
-40 1z"/>
<path d="M16696 14924 c-9 -24 -7 -83 4 -104 9 -16 14 -17 47 -7 21 6 41 16
45 21 6 9 -68 106 -82 106 -5 0 -11 -7 -14 -16z"/>
<path d="M15876 14833 c-4 -23 -17 -54 -27 -68 -24 -30 -20 -40 26 -55 38 -13
46 -38 19 -64 -14 -14 -13 -17 10 -28 14 -6 26 -15 26 -20 0 -4 7 -8 16 -8 29
0 13 117 -24 183 -17 29 -32 64 -34 78 -3 19 -6 15 -12 -18z"/>
<path d="M12620 14789 c0 -11 5 -17 10 -14 6 3 10 13 10 21 0 8 -4 14 -10 14
-5 0 -10 -9 -10 -21z"/>
<path d="M15377 14803 c-3 -2 6 -28 19 -56 19 -41 23 -61 18 -95 -5 -31 -2
-49 11 -68 16 -24 18 -25 33 -10 9 8 21 37 28 63 10 40 10 53 -4 83 -10 19
-29 41 -45 48 -15 7 -27 17 -27 21 0 11 -26 22 -33 14z"/>
<path d="M16810 14796 c0 -9 5 -16 10 -16 6 0 10 4 10 9 0 6 -4 13 -10 16 -5
3 -10 -1 -10 -9z"/>
<path d="M15203 14752 c-16 -10 3 -109 27 -139 10 -12 21 -43 24 -68 8 -48 33
-75 71 -75 51 0 61 57 15 90 -16 12 -30 26 -30 32 0 5 -10 24 -22 41 -13 17
-30 51 -38 76 -15 46 -26 56 -47 43z"/>
<path d="M12567 14696 c-3 -8 -2 -18 3 -21 13 -8 20 9 11 24 -6 10 -10 9 -14
-3z"/>
<path d="M12510 14580 c0 -19 3 -21 12 -12 9 9 9 15 0 24 -9 9 -12 7 -12 -12z"/>
<path d="M15981 14575 c-70 -22 -82 -57 -26 -81 19 -8 35 -19 35 -24 0 -11
-40 -50 -52 -50 -16 0 -7 -18 12 -23 11 -3 22 -17 25 -33 3 -16 14 -50 24 -75
18 -45 18 -47 -2 -73 -19 -27 -19 -27 0 -46 11 -10 29 -49 39 -85 l18 -68 -37
-33 c-35 -33 -67 -41 -101 -28 -23 9 -20 23 9 36 14 6 25 17 25 23 0 17 -107
124 -159 160 -24 16 -49 38 -55 47 -6 10 -14 18 -18 18 -13 0 -9 -55 4 -68 7
-7 19 -35 28 -64 14 -46 19 -53 50 -61 51 -13 57 -23 32 -50 -30 -32 -21 -79
23 -113 30 -23 32 -27 22 -53 -9 -24 -7 -33 11 -56 13 -16 22 -42 22 -61 0
-25 7 -39 29 -55 16 -12 32 -33 36 -47 9 -35 72 -94 120 -113 38 -14 40 -17
43 -59 2 -38 7 -103 11 -146 1 -6 12 -16 25 -22 28 -13 59 -117 46 -160 -4
-17 -2 -37 7 -54 12 -24 11 -32 -1 -57 -14 -27 -14 -30 10 -52 25 -23 26 -28
19 -94 -8 -86 -20 -102 -66 -86 -20 7 -36 8 -42 2 -14 -14 1 -31 28 -31 18 0
26 -7 31 -24 3 -14 14 -32 25 -42 24 -22 24 -35 0 -65 -29 -38 -29 -70 1 -100
24 -24 25 -29 15 -67 -8 -30 -7 -54 3 -96 7 -31 16 -56 20 -56 10 0 20 64 20
131 0 42 5 60 19 73 19 17 20 17 30 -21 19 -72 24 -244 9 -288 -11 -33 -12
-44 -1 -65 10 -17 12 -45 7 -91 -3 -37 -7 -257 -9 -490 -3 -420 -7 -489 -29
-489 -8 0 -8 -2 0 -8 11 -7 18 -39 15 -72 -2 -20 -31 17 -31 40 0 18 -51 40
-91 40 -26 0 -26 0 -16 -60 9 -53 14 -63 45 -82 29 -18 40 -20 63 -11 27 11
29 10 35 -22 6 -34 -1 -71 -18 -91 -5 -7 -11 -171 -13 -365 -4 -332 -12 -429
-39 -499 -3 -8 -12 -104 -21 -214 -8 -109 -21 -208 -28 -220 -6 -11 -13 -43
-13 -71 -3 -86 -24 -273 -34 -300 -5 -14 -14 -25 -19 -25 -5 0 -12 -62 -16
-137 -5 -96 -13 -153 -26 -188 -10 -27 -22 -86 -25 -130 -4 -52 -14 -97 -29
-130 -14 -29 -26 -81 -30 -125 -4 -42 -15 -88 -25 -105 -9 -16 -23 -58 -30
-93 -7 -35 -20 -73 -30 -85 -9 -12 -22 -51 -28 -87 -8 -45 -18 -69 -32 -79
-14 -9 -20 -24 -20 -51 0 -23 -9 -51 -24 -72 -13 -20 -27 -59 -31 -86 -4 -28
-15 -68 -26 -89 -10 -20 -24 -64 -30 -97 -6 -34 -17 -68 -25 -77 -8 -9 -21
-42 -29 -73 -9 -32 -22 -68 -30 -79 -8 -12 -15 -34 -15 -48 0 -15 -12 -41 -26
-58 -26 -31 -41 -88 -31 -116 5 -12 17 -5 53 30 26 24 56 47 66 51 25 8 22 25
-9 50 -24 19 -26 24 -14 38 7 9 20 16 27 16 7 0 21 14 29 30 9 17 26 35 39 40
22 8 23 11 14 59 -10 58 9 116 42 126 19 6 30 33 30 76 0 14 11 38 25 53 16
18 25 39 25 61 0 53 8 65 46 65 29 0 34 3 34 25 0 13 8 32 18 42 45 46 46 51
14 78 l-31 26 24 23 c18 18 33 23 68 22 25 -1 52 5 58 12 10 10 0 12 -53 12
-58 0 -68 3 -73 20 -10 33 25 132 58 162 l30 27 -22 26 c-24 32 -21 39 22 61
17 9 40 27 50 40 10 13 27 24 38 24 11 0 23 10 29 24 4 13 20 26 34 30 13 3
28 15 31 26 3 11 12 20 19 20 6 0 20 15 31 33 10 17 24 37 31 42 16 13 28 116
15 135 -8 12 -18 5 -55 -35 -24 -28 -54 -61 -66 -73 -15 -17 -20 -31 -15 -51
4 -20 0 -32 -18 -49 l-23 -22 -32 23 c-17 12 -36 36 -42 52 -10 27 -8 32 20
56 16 14 30 34 31 45 0 10 6 35 12 54 10 29 10 40 -3 63 -14 27 -14 29 13 50
15 13 27 28 27 34 0 6 14 21 30 33 17 12 30 27 30 33 0 7 9 18 20 25 11 7 20
19 20 27 0 8 11 22 25 31 16 10 25 26 25 42 l0 25 -23 -21 c-13 -12 -27 -22
-31 -22 -4 0 -19 -14 -33 -30 -13 -16 -31 -30 -39 -30 -22 0 -29 50 -11 81 14
25 14 29 0 41 -20 17 -13 150 9 176 9 9 19 27 22 39 4 11 13 26 21 33 9 7 11
19 6 38 -10 35 -1 61 30 78 18 10 20 13 7 14 -10 0 -25 11 -34 26 -16 24 -16
26 4 53 13 19 17 32 11 42 -15 23 -10 51 12 76 20 20 21 27 11 75 -10 53 -6
97 18 174 11 36 10 45 -5 68 -15 22 -17 41 -13 109 3 45 13 95 21 112 32 61
47 99 47 120 0 11 7 30 15 41 19 25 19 48 0 64 -11 9 -15 32 -15 79 0 54 4 70
20 84 11 9 20 24 20 32 0 9 10 20 23 26 20 9 35 29 74 93 6 11 20 27 31 36 21
17 44 65 35 74 -14 13 -34 5 -45 -19 -6 -14 -16 -25 -23 -25 -6 0 -22 -11 -35
-25 -13 -14 -29 -25 -36 -25 -7 0 -22 -19 -32 -42 l-19 -43 -7 33 c-6 23 -3
40 8 57 23 34 21 111 -4 142 -26 33 -23 162 5 193 17 18 17 21 0 46 -16 25
-16 27 4 48 12 12 21 27 21 33 0 7 13 21 29 32 20 15 28 27 24 40 -10 37 -59
37 -65 0 -2 -11 -7 -18 -13 -17 -13 4 -7 37 11 62 20 29 17 72 -6 94 -39 36
-38 357 1 433 5 11 3 28 -7 48 -24 49 -12 153 27 233 8 17 -2 67 -22 105 -9
18 -10 29 -1 48 10 22 9 30 -8 53 -25 34 -42 180 -29 249 5 25 11 48 13 50 2
3 1 17 -4 33 -5 19 -2 45 10 81 10 30 16 57 14 60 -2 4 -19 10 -38 13 -41 8
-54 22 -62 67 -4 19 -13 43 -21 54 -17 26 -17 79 2 95 26 21 28 50 7 73 -15
16 -24 46 -31 106 -6 46 -16 98 -22 116 -7 18 -9 43 -6 57 8 29 70 119 110
159 15 15 27 32 27 38 0 6 11 18 25 27 13 9 27 24 30 34 3 11 14 22 24 25 11
3 24 19 31 35 6 16 18 31 26 34 8 3 14 18 13 38 -1 18 -3 25 -6 16 -2 -9 -17
-20 -33 -23 -16 -4 -38 -18 -48 -32 -23 -31 -48 -26 -62 12 -12 31 -24 32 -52
0 l-21 -24 -24 25 -24 26 -28 -26 c-51 -49 -59 -38 -97 143 -28 132 -32 274
-9 305 21 28 19 63 -5 76 -13 7 -20 21 -20 40 0 15 -3 35 -6 44 -6 14 -9 14
-35 -1 -15 -9 -30 -15 -32 -12 -1 2 -13 29 -25 60 -27 67 -22 138 9 146 21 6
26 33 7 32 -7 0 -33 -7 -57 -14z m409 -885 c0 -5 -2 -10 -4 -10 -3 0 -8 5 -11
10 -3 6 -1 10 4 10 6 0 11 -4 11 -10z"/>
<path d="M15470 14515 c-19 -20 -22 -32 -18 -69 7 -59 -2 -72 -36 -54 -15 8
-33 25 -39 39 -8 16 -21 24 -37 24 -23 0 -25 -4 -24 -41 0 -31 9 -51 32 -80
18 -21 32 -42 32 -47 0 -4 14 -37 30 -73 22 -46 36 -64 47 -62 23 4 44 73 37
119 -5 31 -3 39 8 39 9 0 21 -7 28 -15 7 -8 16 -12 21 -9 22 14 1 129 -40 216
l-18 38 -23 -25z"/>
<path d="M17138 14488 c-2 -13 0 -36 4 -51 10 -41 -28 -206 -55 -235 l-22 -24
25 -21 c14 -12 38 -43 53 -69 24 -42 26 -53 21 -110 -5 -49 -12 -68 -31 -87
-20 -19 -24 -30 -19 -55 20 -97 19 -114 -7 -145 -14 -17 -29 -41 -32 -53 -4
-13 -14 -30 -21 -39 -11 -13 -12 -23 -4 -44 8 -22 7 -33 -5 -51 -8 -13 -15
-37 -15 -54 0 -17 -7 -45 -16 -61 -9 -19 -13 -41 -9 -59 5 -23 2 -32 -14 -42
-26 -16 -26 -36 -2 -68 19 -24 19 -24 -16 -95 -20 -38 -46 -84 -59 -101 -13
-17 -24 -36 -24 -42 0 -7 -4 -12 -8 -12 -5 0 -17 -16 -28 -35 -10 -19 -22 -35
-26 -35 -4 0 -12 -9 -17 -19 -16 -29 10 -46 35 -23 51 46 106 84 141 96 35 12
38 16 43 60 3 25 10 46 15 46 6 0 10 -49 10 -127 l0 -128 -39 -19 c-25 -12
-43 -30 -53 -54 -8 -19 -23 -48 -34 -63 -10 -16 -27 -41 -38 -57 -10 -15 -22
-39 -26 -52 -4 -14 -18 -37 -31 -51 -17 -17 -27 -43 -31 -77 -5 -42 -9 -52
-24 -52 -11 0 -19 -7 -19 -15 0 -20 24 -19 40 0 8 9 17 12 22 7 12 -12 -11
-102 -27 -102 -20 0 -82 -67 -89 -97 -4 -15 -23 -51 -43 -80 -33 -48 -37 -73
-11 -73 6 0 20 10 32 23 12 12 39 36 60 52 107 84 223 195 264 252 17 25 22
45 22 100 0 79 14 114 24 60 9 -48 41 -56 62 -15 9 17 35 59 59 94 25 35 49
82 55 103 5 21 16 44 24 50 7 6 21 29 31 51 10 22 22 40 26 40 5 0 18 18 29
40 11 22 24 40 29 40 5 0 14 41 20 92 12 91 56 204 94 242 8 9 20 39 26 68 7
29 19 60 27 70 24 26 35 121 41 360 7 283 1 301 -126 422 -24 22 -47 51 -52
64 -5 13 -27 31 -51 41 -29 13 -49 30 -62 55 -21 40 -40 46 -58 16 -16 -25
-25 -25 -33 1 -4 13 -1 27 10 39 14 16 15 25 6 50 -10 31 -49 79 -63 80 -4 0
-8 -10 -10 -22z m136 -273 c7 -37 1 -59 -15 -50 -12 8 -12 85 0 85 5 0 12 -16
15 -35z m64 -139 c-4 -37 -24 -45 -38 -14 -8 17 -8 32 0 53 11 29 12 29 26 10
8 -11 14 -33 12 -49z m39 -148 c-2 -13 -4 -5 -4 17 -1 22 1 32 4 23 2 -10 2
-28 0 -40z m-161 -414 c-5 -13 -10 -14 -18 -6 -6 6 -8 18 -4 28 5 13 10 14 18
6 6 -6 8 -18 4 -28z m-56 -189 c0 -19 -4 -35 -10 -35 -11 0 -14 53 -3 63 11
12 13 8 13 -28z m-45 -95 c8 -25 -3 -98 -15 -105 -16 -10 -30 63 -18 95 12 35
24 38 33 10z"/>
<path d="M15650 14346 c0 -22 11 -46 21 -46 5 0 9 14 9 30 0 20 -5 30 -15 30
-8 0 -15 -6 -15 -14z"/>
<path d="M15485 14119 c-8 -25 2 -89 15 -89 13 0 50 65 50 89 0 30 -56 30 -65
0z"/>
<path d="M14932 13938 c-18 -18 -14 -63 8 -83 10 -9 39 -20 64 -22 30 -4 46
-11 49 -22 3 -9 5 -2 6 16 1 23 -5 35 -20 43 -11 7 -38 27 -58 45 -29 26 -40
32 -49 23z"/>
<path d="M15540 13904 c-13 -34 -13 -47 4 -69 13 -18 14 -18 24 2 8 14 8 31 1
57 -12 43 -16 44 -29 10z"/>
<path d="M14885 13820 c-11 -17 -11 -98 0 -109 6 -5 22 -13 38 -16 24 -6 27
-4 27 18 0 29 -37 117 -50 117 -5 0 -12 -5 -15 -10z"/>
<path d="M14859 13513 c-33 -65 -68 -89 -108 -75 -34 12 -35 11 -31 -57 3 -63
54 -109 79 -72 17 27 57 27 71 1 6 -11 15 -20 20 -20 15 0 12 29 -6 77 -24 62
0 98 40 58 8 -8 19 -15 25 -15 15 0 2 59 -18 82 -9 10 -18 28 -21 40 -9 37
-27 31 -51 -19z"/>
<path d="M17695 12980 c-3 -6 5 -14 19 -20 15 -5 26 -17 26 -28 0 -10 9 -27
20 -37 57 -52 122 -225 99 -267 -5 -9 -9 -34 -10 -55 0 -25 -15 -65 -44 -118
-81 -146 -80 -144 -67 -157 9 -9 18 -5 40 22 20 23 34 31 45 27 19 -7 22 -48
6 -78 -8 -15 -7 -24 2 -35 18 -22 52 -13 67 19 7 15 19 27 25 27 15 0 70 -117
61 -131 -4 -6 -13 -4 -25 7 -24 21 -47 12 -63 -26 -13 -31 -12 -33 15 -135 1
-5 -3 -23 -9 -38 -7 -16 -12 -32 -12 -37 0 -4 -11 -15 -25 -24 -14 -9 -28 -29
-31 -44 -8 -30 -36 -72 -72 -105 -12 -12 -49 -47 -82 -78 -33 -31 -60 -64 -60
-73 0 -23 26 -31 58 -17 33 16 48 -2 58 -68 3 -25 16 -66 27 -91 16 -37 18
-51 9 -80 -6 -19 -19 -64 -30 -99 -10 -35 -26 -69 -36 -76 -14 -11 -15 -17 -7
-34 17 -30 13 -41 -13 -41 -29 0 -41 -15 -51 -59 -4 -21 -14 -35 -27 -39 -18
-4 -19 -11 -13 -77 l7 -72 -32 -6 c-29 -6 -30 -8 -16 -23 9 -8 16 -21 16 -28
0 -8 7 -19 15 -26 13 -11 19 -9 36 9 16 17 24 19 34 11 20 -16 8 -43 -46 -103
-53 -59 -60 -82 -30 -90 24 -6 31 0 31 26 0 11 9 21 20 24 12 3 27 21 35 39 8
19 20 34 28 34 16 0 27 21 27 49 0 9 27 52 60 95 33 43 60 84 60 91 0 7 6 18
14 24 22 18 28 71 11 97 -12 18 -14 42 -8 114 6 93 23 106 23 19 0 -35 6 -51
24 -68 l23 -22 13 33 c7 18 21 42 30 53 10 11 25 43 35 70 10 28 21 55 25 60
4 6 15 35 24 65 10 30 25 63 33 72 8 9 21 56 27 105 15 104 50 260 73 323 9
25 18 79 20 121 4 63 1 83 -16 115 -12 21 -21 46 -21 54 0 8 -13 41 -29 73
-17 34 -32 85 -36 120 -4 34 -13 73 -20 87 -7 14 -20 60 -28 104 -9 43 -23 86
-30 95 -8 9 -20 33 -26 53 -7 20 -19 42 -27 49 -8 7 -21 26 -28 43 -21 48
-102 125 -164 157 -62 31 -77 35 -87 19z m185 -610 c0 -5 -7 -10 -16 -10 -8 0
-12 5 -9 10 3 6 10 10 16 10 5 0 9 -4 9 -10z m112 -550 c3 -38 12 -80 20 -92
11 -17 12 -31 5 -56 -9 -28 -7 -38 13 -64 25 -34 36 -96 20 -118 -9 -13 -12
-12 -26 5 -8 11 -18 31 -21 45 -8 34 -22 50 -44 50 -13 0 -19 9 -21 33 -3 31
-5 32 -48 33 -75 2 -79 3 -86 29 -4 17 1 33 15 51 12 15 21 35 21 44 0 10 9
20 20 23 11 3 26 22 36 46 15 38 19 41 54 41 l37 0 5 -70z"/>
<path d="M16537 12962 c-2 -11 -17 -22 -36 -25 -32 -7 -38 -20 -21 -47 8 -12
12 -12 36 0 14 8 28 21 31 30 9 32 21 45 44 51 20 6 18 7 -12 8 -28 1 -38 -4
-42 -17z"/>
<path d="M16760 12810 c0 -19 3 -21 12 -12 9 9 9 15 0 24 -9 9 -12 7 -12 -12z"/>
<path d="M14210 12364 c0 -70 27 -145 77 -212 16 -21 28 -55 33 -94 12 -81 20
-88 70 -53 l40 28 -24 22 c-15 14 -29 44 -37 81 -15 68 -51 142 -80 164 -16
12 -18 21 -11 40 11 29 -23 89 -50 90 -15 0 -18 -10 -18 -66z"/>
<path d="M17701 12254 c0 -11 3 -14 6 -6 3 7 2 16 -1 19 -3 4 -6 -2 -5 -13z"/>
<path d="M17640 12150 c0 -5 5 -10 10 -10 6 0 10 5 10 10 0 6 -4 10 -10 10 -5
0 -10 -4 -10 -10z"/>
<path d="M16200 12105 c-11 -13 -9 -20 8 -38 12 -13 29 -45 38 -71 9 -26 21
-45 28 -43 14 4 20 68 11 125 -6 40 -8 42 -39 42 -19 0 -39 -7 -46 -15z"/>
<path d="M17585 12101 c-3 -5 -1 -12 5 -16 5 -3 10 1 10 9 0 18 -6 21 -15 7z"/>
<path d="M16590 11984 c0 -9 5 -14 12 -12 18 6 21 28 4 28 -9 0 -16 -7 -16
-16z"/>
<path d="M14391 11934 c0 -11 3 -14 6 -6 3 7 2 16 -1 19 -3 4 -6 -2 -5 -13z"/>
<path d="M17085 11880 c-10 -16 3 -29 25 -23 24 6 26 19 4 27 -21 8 -22 8 -29
-4z"/>
<path d="M16251 11788 c-8 -23 5 -68 20 -68 18 0 31 42 20 66 -13 30 -29 31
-40 2z"/>
<path d="M16878 11773 c-31 -5 -32 -7 -18 -33 9 -18 11 -18 50 1 22 11 38 24
35 29 -6 10 -17 10 -67 3z"/>
<path d="M16242 11614 c-10 -17 19 -119 34 -119 11 0 18 79 9 112 -6 26 -30
30 -43 7z"/>
<path d="M14435 11500 c-4 -6 -4 -23 -1 -36 6 -21 9 -24 21 -14 19 16 19 34 1
49 -10 9 -16 9 -21 1z"/>
<path d="M16250 11414 c-11 -27 3 -104 19 -104 25 0 41 96 19 118 -18 18 -27
15 -38 -14z"/>
<path d="M14437 11189 c-8 -29 3 -129 13 -129 23 0 28 106 7 135 -13 17 -14
17 -20 -6z"/>
<path d="M16925 11100 c-3 -5 -1 -10 4 -10 6 0 11 5 11 10 0 6 -2 10 -4 10 -3
0 -8 -4 -11 -10z"/>
<path d="M14432 10989 c-15 -64 -15 -149 -1 -186 6 -15 10 -61 10 -100 -1 -40
2 -73 6 -73 18 0 33 25 33 52 0 34 17 43 53 29 36 -14 40 -1 17 47 -11 23 -20
46 -20 53 0 7 -11 31 -24 54 -14 23 -30 72 -37 108 -7 37 -15 67 -19 67 -4 0
-12 -23 -18 -51z"/>
<path d="M16136 10678 c-15 -21 -9 -49 14 -63 6 -3 10 -21 10 -39 0 -25 -5
-35 -20 -39 -24 -6 -24 -19 -5 -120 17 -89 20 -97 40 -97 8 0 20 -9 28 -20 13
-19 15 -14 21 52 12 141 17 270 11 288 -5 15 -65 60 -80 60 -2 0 -11 -10 -19
-22z"/>
<path d="M14494 10566 c-8 -20 4 -86 15 -86 16 0 35 61 24 78 -14 23 -32 26
-39 8z"/>
<path d="M14542 10457 c-9 -11 -9 -23 2 -53 17 -51 31 -46 31 13 0 48 -13 64
-33 40z"/>
<path d="M14493 10287 c-17 -26 -31 -171 -21 -214 6 -24 8 -52 5 -63 -7 -26
21 -50 34 -29 5 8 9 21 9 30 0 9 6 21 13 27 10 8 11 27 6 69 -4 41 -2 66 7 85
12 24 12 32 -3 62 -18 39 -38 52 -50 33z"/>
<path d="M17687 10142 c-57 -76 -67 -94 -67 -130 0 -56 17 -63 52 -20 38 49
65 42 74 -18 3 -24 10 -41 15 -38 12 7 11 75 0 93 -6 9 -4 23 6 38 22 34 17
163 -6 163 -4 0 -37 -40 -74 -88z"/>
<path d="M17306 10194 c-3 -9 -6 -27 -6 -41 0 -39 25 -22 28 20 3 37 -11 50
-22 21z"/>
<path d="M14700 10139 c0 -28 18 -59 35 -59 20 0 24 22 8 53 -16 32 -43 36
-43 6z"/>
<path d="M17239 10087 c-38 -48 -44 -89 -14 -117 13 -12 28 -19 34 -16 27 17
43 166 19 166 -7 0 -25 -15 -39 -33z"/>
<path d="M14770 10055 c0 -8 5 -15 10 -15 6 0 10 7 10 15 0 8 -4 15 -10 15 -5
0 -10 -7 -10 -15z"/>
<path d="M14826 10002 c-2 -4 -1 -14 5 -22 7 -12 9 -10 9 8 0 23 -5 28 -14 14z"/>
<path d="M16035 9937 c-8 -32 -3 -72 10 -72 6 0 11 17 13 39 4 46 -14 72 -23
33z"/>
<path d="M17591 9934 c0 -11 3 -14 6 -6 3 7 2 16 -1 19 -3 4 -6 -2 -5 -13z"/>
<path d="M14485 9914 c-8 -9 -15 -17 -15 -19 0 -10 27 -63 46 -92 12 -17 24
-50 28 -73 8 -50 24 -48 43 5 14 41 6 112 -17 155 -15 28 -66 42 -85 24z"/>
<path d="M17692 9858 c-21 -70 -22 -86 -6 -92 23 -9 22 -9 34 33 7 26 7 48 0
65 -12 34 -16 33 -28 -6z"/>
<path d="M14935 9840 c-4 -6 -3 -16 3 -22 6 -6 12 -6 17 2 4 6 3 16 -3 22 -6
6 -12 6 -17 -2z"/>
<path d="M14990 9770 c0 -5 5 -10 10 -10 6 0 10 5 10 10 0 6 -4 10 -10 10 -5
0 -10 -4 -10 -10z"/>
<path d="M16092 9734 c-18 -46 -18 -67 0 -92 l16 -23 16 22 c8 12 12 27 9 32
-3 5 -11 28 -18 50 l-11 40 -12 -29z"/>
<path d="M16541 9664 c0 -11 3 -14 6 -6 3 7 2 16 -1 19 -3 4 -6 -2 -5 -13z"/>
<path d="M14599 9647 c-9 -19 -9 -36 -1 -64 17 -62 63 -167 82 -188 10 -11 22
-33 26 -49 4 -16 15 -31 25 -33 11 -3 19 -13 19 -22 0 -9 4 -21 9 -26 5 -6 11
-19 13 -30 2 -11 14 -22 28 -25 21 -5 26 -13 30 -55 l6 -50 4 62 c4 44 1 64
-7 67 -7 3 -19 21 -27 41 -10 24 -21 35 -35 35 -24 0 -25 5 -11 46 9 25 6 37
-15 74 -14 25 -34 65 -45 89 -11 23 -29 54 -40 68 -11 14 -20 34 -20 43 0 10
-7 23 -15 30 -12 10 -17 8 -26 -13z"/>
<path d="M17147 9623 c-11 -10 -8 -51 3 -58 6 -3 10 0 10 8 0 8 7 20 15 27 13
11 13 15 3 21 -16 11 -23 11 -31 2z"/>
<path d="M15105 9610 c3 -5 8 -10 11 -10 2 0 4 5 4 10 0 6 -5 10 -11 10 -5 0
-7 -4 -4 -10z"/>
<path d="M16092 9583 c-16 -29 -25 -120 -26 -263 -1 -122 -4 -138 -24 -165
-21 -29 -21 -33 -10 -152 12 -131 9 -153 -21 -153 -21 0 -61 -56 -61 -86 0
-11 6 -50 15 -89 8 -38 17 -87 20 -108 10 -63 22 -33 30 74 4 56 13 120 21
142 8 22 14 58 14 81 0 22 9 79 20 126 15 66 24 88 44 103 15 10 24 22 21 26
-8 14 -14 236 -7 291 6 47 11 57 36 68 25 12 27 18 22 46 -11 54 -75 95 -94
59z"/>
<path d="M14382 9253 c-19 -35 -6 -273 14 -273 2 0 12 5 22 11 13 8 16 22 14
66 -3 47 -1 57 17 69 25 18 27 42 6 51 -9 3 -26 26 -39 51 -22 43 -24 44 -34
25z"/>
<path d="M14480 9110 c19 -13 30 -13 30 0 0 6 -10 10 -22 10 -19 0 -20 -2 -8
-10z"/>
<path d="M14550 9060 c0 -5 5 -10 11 -10 5 0 7 5 4 10 -3 6 -8 10 -11 10 -2 0
-4 -4 -4 -10z"/>
<path d="M15540 9060 c0 -5 5 -10 10 -10 6 0 10 5 10 10 0 6 -4 10 -10 10 -5
0 -10 -4 -10 -10z"/>
<path d="M15600 8994 c0 -8 5 -12 10 -9 6 3 10 10 10 16 0 5 -4 9 -10 9 -5 0
-10 -7 -10 -16z"/>
<path d="M15087 8953 c-4 -3 -7 -19 -7 -34 0 -22 6 -30 34 -39 19 -6 36 -19
39 -29 3 -11 16 -20 36 -23 40 -6 51 9 17 22 -16 6 -26 17 -26 29 0 12 -9 21
-25 25 -15 4 -27 16 -31 31 -6 24 -23 32 -37 18z"/>
<path d="M15652 8896 c1 -10 8 -17 13 -17 15 1 12 24 -3 29 -9 3 -13 -2 -10
-12z"/>
<path d="M16470 8795 c-10 -12 -9 -16 3 -21 21 -8 37 3 30 21 -7 19 -17 19
-33 0z"/>
<path d="M17988 8749 c-14 -6 -29 -20 -32 -34 -3 -13 -9 -30 -12 -38 -11 -29
34 -31 77 -2 22 14 51 30 64 35 32 12 23 36 -17 44 -38 7 -46 7 -80 -5z"/>
<path d="M16414 8739 c-8 -14 18 -31 30 -19 9 9 0 30 -14 30 -5 0 -12 -5 -16
-11z"/>
<path d="M15765 8698 c-9 -22 -2 -63 10 -63 14 0 18 41 6 62 -9 17 -10 17 -16
1z"/>
<path d="M15816 8569 c-15 -73 -15 -137 -1 -149 28 -24 38 -1 32 78 -6 78 -22
115 -31 71z"/>
<path d="M15435 8571 c-3 -5 -1 -12 5 -16 5 -3 10 1 10 9 0 18 -6 21 -15 7z"/>
<path d="M15480 8505 c0 -14 7 -28 15 -32 22 -8 28 2 21 32 -8 33 -36 33 -36
0z"/>
<path d="M15532 8428 c14 -44 25 -55 39 -41 17 17 -8 73 -32 73 -16 0 -17 -4
-7 -32z"/>
<path d="M15810 8386 c-54 -14 -58 -28 -31 -101 35 -93 24 -188 -19 -165 -16
8 -20 21 -20 59 0 39 -5 54 -27 77 -16 16 -44 49 -64 73 -23 28 -41 41 -48 36
-16 -9 -6 -50 20 -83 10 -14 19 -35 19 -47 0 -12 13 -39 30 -60 16 -21 35 -56
40 -79 6 -22 15 -51 20 -64 6 -13 10 -47 10 -76 0 -95 11 -146 31 -146 13 0
21 14 30 57 7 31 21 64 31 72 14 12 18 31 18 92 0 64 4 81 23 105 20 26 49
129 64 227 l5 37 -43 -1 c-24 -1 -64 -6 -89 -13z"/>
<path d="M14716 8363 c-9 -10 -7 -41 4 -48 9 -6 50 15 50 26 0 9 -47 28 -54
22z"/>
<path d="M17450 8184 c-19 -7 -29 -13 -22 -13 7 -1 24 -12 37 -26 l23 -26 7
32 c9 40 -2 48 -45 33z"/>
<path d="M15597 8073 c-7 -13 5 -73 14 -73 5 0 9 18 9 40 0 36 -12 52 -23 33z"/>
<path d="M15646 7968 c-7 -21 -17 -144 -22 -253 -2 -60 -13 -134 -27 -185
l-22 -85 -44 0 c-35 0 -46 -4 -52 -20 -13 -34 -10 -140 5 -160 13 -18 14 -18
45 4 34 24 61 68 61 99 0 28 39 113 65 142 12 14 28 48 34 75 7 28 22 60 33
72 19 20 19 26 8 53 -10 24 -10 37 -1 57 6 14 10 26 9 27 -39 16 -43 25 -48
102 -4 65 -8 79 -23 82 -9 2 -19 -2 -21 -10z"/>
<path d="M16239 7968 c-9 -7 -23 -25 -32 -40 -21 -34 -4 -49 23 -20 12 13 38
21 78 26 72 8 82 16 41 33 -39 16 -91 17 -110 1z"/>
<path d="M12873 7817 c-18 -12 -35 -30 -38 -39 -3 -9 -17 -33 -31 -53 -14 -21
-32 -65 -41 -98 -15 -61 -15 -61 8 -80 l24 -19 67 74 c37 40 68 78 68 85 0 6
8 18 19 25 10 7 26 28 35 47 17 32 17 34 -5 57 -28 30 -63 30 -106 1z"/>
<path d="M15425 7608 c-7 -39 6 -110 21 -115 14 -5 34 40 34 75 0 28 -24 72
-40 72 -5 0 -12 -15 -15 -32z"/>
<path d="M11300 7505 c-16 -19 -44 -70 -65 -115 -8 -19 -26 -56 -40 -81 -14
-26 -25 -53 -25 -60 0 -8 -14 -41 -30 -74 -16 -33 -30 -68 -30 -78 0 -10 -9
-43 -20 -74 -38 -109 -19 -221 42 -254 22 -12 130 -13 176 -3 31 8 120 63 160
101 15 14 50 42 77 63 28 20 56 45 64 54 12 14 72 46 87 46 2 0 8 -27 15 -61
11 -56 16 -64 63 -101 50 -40 52 -40 116 -35 75 6 197 63 274 128 61 51 91 60
101 30 9 -30 71 -104 102 -123 66 -41 75 -43 258 -43 174 0 182 1 235 26 30
15 71 34 90 43 19 9 49 24 67 34 41 22 183 134 183 144 0 4 14 24 32 44 23 25
32 46 32 70 0 52 -15 60 -62 30 -22 -14 -42 -29 -43 -33 -12 -26 -223 -193
-245 -193 -6 0 -23 -9 -37 -20 -58 -46 -301 -66 -367 -30 -68 36 -94 125 -49
166 18 16 34 19 120 16 145 -4 240 24 309 91 59 58 92 121 85 160 -8 44 -69
91 -136 107 -46 11 -57 10 -170 -25 -135 -42 -214 -88 -288 -169 -84 -91 -116
-121 -145 -141 -30 -21 -83 -57 -132 -89 -16 -10 -41 -27 -55 -37 -41 -28
-130 -51 -146 -38 -19 16 -16 87 7 137 10 23 22 59 26 80 4 20 18 62 31 92 28
62 35 149 14 174 -21 25 -79 20 -123 -10 -21 -15 -75 -70 -121 -123 -92 -107
-221 -244 -281 -300 -22 -20 -51 -48 -65 -63 -36 -38 -131 -80 -148 -66 -20
17 -15 68 12 122 14 27 25 57 25 65 0 9 12 39 25 66 14 28 25 56 25 64 0 7 12
36 26 64 14 28 32 80 40 115 14 60 14 64 -6 92 -24 34 -69 41 -90 15z m1479
-144 c46 -25 -15 -121 -90 -141 -45 -12 -108 -4 -116 16 -12 33 13 66 77 100
67 35 98 41 129 25z"/>
<path d="M15916 7424 c-9 -8 -16 -24 -16 -35 0 -12 -7 -19 -19 -19 -10 0 -24
-6 -30 -14 -10 -12 -8 -16 10 -21 17 -6 27 -2 40 14 9 11 21 21 27 21 5 0 17
9 27 20 15 16 15 22 5 35 -16 19 -25 19 -44 -1z"/>
<path d="M15760 7240 c0 -5 7 -10 16 -10 8 0 12 5 9 10 -3 6 -10 10 -16 10 -5
0 -9 -4 -9 -10z"/>
<path d="M15331 7074 c0 -11 3 -14 6 -6 3 7 2 16 -1 19 -3 4 -6 -2 -5 -13z"/>
<path d="M16461 7030 c-32 -14 -16 -30 36 -37 56 -7 188 16 174 30 -14 14
-179 20 -210 7z"/>
<path d="M17156 6935 c-27 -6 -51 -16 -53 -22 -5 -15 58 -27 91 -19 17 4 33
-1 53 -18 34 -28 69 -40 78 -26 4 6 -6 10 -24 10 -27 0 -31 4 -31 28 -1 41
-49 61 -114 47z"/>
<path d="M15061 5540 l-143 -5 -3 -45 c-1 -25 -5 -52 -9 -62 -5 -11 -1 -18 14
-23 28 -9 47 9 62 56 6 22 17 44 25 50 13 11 157 14 174 3 12 -7 11 -65 -1
-84 -10 -16 4 -30 33 -30 11 0 24 14 34 38 27 66 37 72 127 72 89 0 122 11 89
28 -20 11 -145 11 -402 2z"/>
<path d="M11955 5489 c-27 -4 -54 -14 -60 -22 -7 -9 -51 -17 -137 -24 -83 -7
-136 -16 -152 -26 -13 -9 -63 -20 -111 -25 -59 -7 -96 -16 -114 -30 -15 -11
-52 -22 -86 -26 -33 -4 -74 -16 -92 -26 -18 -11 -49 -22 -70 -26 -21 -3 -56
-17 -78 -29 -22 -13 -57 -26 -78 -30 -20 -4 -47 -15 -60 -25 -12 -9 -42 -27
-67 -39 -77 -38 -103 -54 -177 -114 -107 -86 -155 -149 -186 -240 -32 -92 -34
-156 -7 -216 11 -24 20 -48 20 -55 0 -15 72 -110 112 -148 38 -35 131 -98 146
-98 6 0 24 -11 40 -25 17 -14 45 -28 64 -31 18 -4 51 -17 74 -30 32 -19 56
-24 108 -24 59 0 69 -2 73 -20 3 -11 6 -20 7 -20 84 -17 544 -15 562 3 4 4 3
11 -2 16 -7 7 -263 16 -556 21 -5 0 -8 6 -8 14 0 12 -31 23 -115 41 -16 4 -37
13 -45 21 -9 7 -34 20 -56 27 -62 22 -184 106 -243 167 -18 19 -49 64 -68 100
-34 63 -35 67 -31 160 3 79 7 101 26 127 12 17 22 35 22 40 0 22 174 183 199
183 5 0 15 7 22 17 8 9 37 27 64 40 28 13 66 33 85 43 19 11 42 19 51 20 9 0
24 9 33 19 9 10 38 22 63 26 51 7 93 24 93 36 0 5 17 11 38 14 74 12 127 27
142 40 8 7 46 16 83 20 84 8 122 19 143 39 10 11 34 16 72 16 77 0 183 18 202
34 10 9 63 16 155 20 134 7 274 22 283 31 2 2 1 8 -3 14 -7 13 -304 13 -380 0z"/>
<path d="M16165 5323 c-63 -9 -133 -35 -151 -54 -11 -12 -40 -32 -65 -45 -26
-13 -49 -32 -52 -44 -4 -15 -13 -20 -40 -20 -46 0 -67 -9 -67 -27 0 -13 9 -15
52 -10 l51 6 51 -55 c48 -52 54 -56 107 -61 49 -5 65 -2 114 23 31 16 66 41
77 57 11 15 28 27 39 27 16 0 19 -7 19 -44 0 -69 18 -74 80 -24 223 181 256
194 225 92 -19 -62 -19 -57 11 -93 29 -34 66 -40 100 -16 12 8 40 21 63 29 37
12 46 12 74 -1 18 -9 41 -24 52 -34 21 -19 60 -24 167 -21 56 2 71 6 94 27 15
14 35 25 44 25 10 0 28 11 41 23 13 13 36 32 52 42 19 12 27 26 27 46 0 34
-15 38 -30 9 -6 -11 -17 -20 -25 -20 -8 0 -20 -9 -27 -19 -7 -10 -30 -26 -51
-34 -20 -9 -37 -23 -37 -31 0 -13 -13 -16 -57 -17 -134 -2 -153 4 -153 52 0
41 39 64 109 64 31 1 65 6 77 13 46 25 71 101 42 130 -20 20 -141 15 -169 -7
-13 -10 -36 -24 -50 -32 -15 -8 -55 -45 -90 -84 -53 -60 -70 -72 -111 -81 -44
-11 -49 -10 -59 8 -8 15 -5 32 13 75 l23 55 -25 20 c-31 25 -104 20 -168 -13
l-43 -22 -31 34 -31 33 -16 -23 c-9 -13 -27 -36 -41 -50 -14 -14 -31 -45 -38
-68 -9 -30 -17 -41 -27 -37 -11 5 -13 18 -9 63 6 54 -9 109 -34 124 -13 9 -76
15 -107 10z m28 -44 c46 -24 48 -56 10 -113 -16 -23 -32 -43 -36 -45 -5 -2
-24 -16 -42 -32 -37 -33 -89 -39 -99 -13 -19 48 12 120 64 151 16 9 33 27 39
40 12 25 31 29 64 12z m917 -14 c17 -20 5 -32 -42 -40 -31 -6 -37 -4 -43 14
-3 11 -3 25 0 31 10 16 71 12 85 -5z"/>
<path d="M15363 4933 c-24 -9 -14 -33 13 -33 32 0 66 18 59 31 -6 9 -51 11
-72 2z"/>
</g>
</svg>
