<?xml version="1.0" standalone="no"?>
<!DOCTYPE svg PUBLIC "-//W3C//DTD SVG 20010904//EN"
  "http://www.w3.org/TR/2001/REC-SVG-20010904/DTD/svg10.dtd">
<svg version="1.0" xmlns="http://www.w3.org/2000/svg"
     width="452.000000pt" height="452.000000pt" viewBox="0 0 452.000000 452.000000"
     preserveAspectRatio="xMidYMid meet">
  <metadata>
    Created by potrace 1.16, written by Peter Selinger 2001-2019
  </metadata>
  <g transform="translate(0.000000,452.000000) scale(0.100000,-0.100000)"
     fill="#000000" stroke="none">
    <path d="M1525 3926 c-16 -7 -42 -26 -57 -42 -25 -27 -1107 -1969 -1169 -2099
-16 -33 -29 -74 -29 -91 0 -46 45 -126 87 -154 l37 -25 412 -3 413 -3 3 -402
c3 -356 5 -406 20 -433 22 -40 81 -92 116 -101 15 -5 129 -8 253 -8 l226 0 48
30 c30 19 56 45 69 70 20 39 21 54 21 440 l0 400 -130 5 c-113 4 -135 8 -167
28 -56 35 -83 85 -83 157 0 60 2 64 286 595 157 294 298 558 312 587 l27 52
-234 475 c-221 448 -237 476 -276 502 -50 33 -137 43 -185 20z"/>
    <path d="M2832 3919 c-23 -12 -50 -33 -61 -48 -10 -14 -122 -232 -250 -483
l-232 -457 17 -33 c9 -18 152 -283 318 -588 300 -553 301 -555 301 -615 0 -72
-27 -122 -83 -157 -32 -20 -54 -24 -167 -28 l-130 -5 0 -400 c0 -386 1 -401
21 -440 13 -25 39 -51 69 -70 l48 -30 226 0 c124 0 238 3 253 8 35 9 94 61
116 101 15 27 17 77 20 434 l3 402 400 0 c442 0 440 0 496 63 42 48 58 107 44
161 -9 37 -1131 2076 -1177 2139 -46 63 -153 85 -232 46z"/>
  </g>
</svg>
