<?xml version="1.0" standalone="no"?>
<!DOCTYPE svg PUBLIC "-//W3C//DTD SVG 20010904//EN"
 "http://www.w3.org/TR/2001/REC-SVG-20010904/DTD/svg10.dtd">
<svg version="1.0" xmlns="http://www.w3.org/2000/svg"
 width="278.000000pt" height="239.000000pt" viewBox="0 0 278.000000 239.000000"
 preserveAspectRatio="xMidYMid meet">

<g transform="translate(0.000000,239.000000) scale(0.100000,-0.100000)"
fill="#000000" stroke="none">
<path d="M2167 2284 c-8 -8 4 -36 26 -59 19 -20 19 -20 1 15 -10 19 -17 38
-16 43 2 9 -2 9 -11 1z"/>
<path d="M2297 2210 c10 -11 19 -20 21 -20 1 0 -2 9 -8 20 -6 11 -15 20 -20
20 -6 0 -2 -9 7 -20z"/>
<path d="M2225 2170 c9 -16 18 -30 21 -30 2 0 -2 14 -11 30 -9 17 -18 30 -21
30 -2 0 2 -13 11 -30z"/>
<path d="M2350 2145 c0 -8 4 -15 10 -15 5 0 7 7 4 15 -4 8 -8 15 -10 15 -2 0
-4 -7 -4 -15z"/>
<path d="M2191 2054 c0 -11 3 -14 6 -6 3 7 2 16 -1 19 -3 4 -6 -2 -5 -13z"/>
<path d="M2268 2063 c7 -3 16 -2 19 1 4 3 -2 6 -13 5 -11 0 -14 -3 -6 -6z"/>
<path d="M2270 2041 c0 -13 26 -32 33 -24 14 13 6 33 -13 33 -11 0 -20 -4 -20
-9z"/>
<path d="M2420 2041 c0 -5 5 -13 10 -16 6 -3 10 -2 10 4 0 5 -4 13 -10 16 -5
3 -10 2 -10 -4z"/>
<path d="M2470 1965 c0 -8 7 -15 16 -15 14 0 14 3 4 15 -7 8 -14 15 -16 15 -2
0 -4 -7 -4 -15z"/>
<path d="M2323 1950 c1 -14 6 -30 9 -36 4 -6 9 -26 12 -45 2 -19 5 -38 6 -44
1 -5 2 -13 1 -17 -1 -10 -51 41 -51 52 0 5 -5 12 -10 15 -13 8 20 -77 33 -86
5 -3 8 -9 8 -13 -4 -29 2 -46 18 -51 14 -4 22 -19 27 -51 3 -24 10 -44 14 -44
5 0 6 -9 3 -20 -3 -11 -10 -20 -15 -20 -7 0 -7 -4 -1 -12 6 -7 9 -24 8 -38 -3
-36 8 -50 16 -20 7 23 7 23 8 -7 1 -38 -13 -50 -36 -31 -13 9 -12 6 2 -14 17
-22 21 -24 27 -10 4 10 7 -11 7 -45 1 -46 -3 -63 -12 -63 -15 0 -16 -35 -2
-47 4 -5 5 -3 1 4 -3 6 -2 14 4 18 6 4 10 -9 10 -32 0 -27 -3 -34 -10 -23 -5
8 -12 11 -16 8 -9 -10 4 -40 15 -34 22 14 -26 -378 -60 -489 -11 -37 -22 -65
-24 -63 -2 2 2 26 10 53 9 27 12 51 7 54 -4 3 -13 17 -20 31 l-11 25 5 -27 c4
-18 2 -28 -5 -28 -9 0 -9 -5 -1 -21 6 -11 9 -25 6 -32 -3 -8 -5 -6 -5 3 -1 8
-17 33 -36 55 l-35 40 29 -50 c17 -27 33 -63 36 -80 l6 -30 -15 33 c-8 17 -18
32 -21 32 -3 0 -1 -8 4 -18 6 -11 9 -32 7 -48 -2 -16 -4 -37 -5 -46 -2 -26
-21 -22 -22 5 0 12 -3 17 -5 10 -3 -6 -1 -26 4 -45 l10 -33 26 55 c30 63 25
33 -9 -52 -13 -32 -51 -92 -85 -133 -34 -42 -60 -78 -58 -81 5 -4 76 77 99
114 8 12 20 22 28 22 8 0 11 3 8 6 -4 4 3 15 15 25 14 13 17 19 7 19 -8 1 9
22 36 47 28 26 38 39 24 30 -26 -15 -39 -14 -39 5 0 5 5 6 12 2 8 -5 9 -2 5 9
-3 10 -2 17 4 17 6 0 8 4 4 9 -3 5 4 12 15 16 22 7 27 25 8 26 -7 0 -4 4 7 9
l20 9 -20 0 c-17 1 -17 3 -5 11 13 9 13 10 0 10 -13 0 -13 1 0 10 8 5 11 10 7
10 -5 0 5 12 22 26 17 14 31 31 31 37 0 6 15 27 33 46 19 21 21 27 6 13 -29
-26 -56 -13 -38 19 7 15 6 17 -11 14 -24 -5 -27 17 -5 35 11 9 12 16 5 25 -5
6 -8 14 -5 17 3 3 6 29 6 59 1 30 6 59 11 66 5 7 7 21 4 31 -5 13 2 30 20 51
24 29 22 45 -3 20 -15 -15 -26 33 -14 64 6 14 6 29 0 38 -5 8 -9 28 -9 45 0
26 11 40 60 83 33 29 58 56 55 61 -3 4 1 10 8 13 12 5 42 59 71 132 9 22 19
64 21 94 4 50 1 56 -31 89 -19 19 -34 39 -34 44 0 4 -5 8 -12 8 -6 0 -9 -3 -5
-6 3 -4 0 -22 -8 -41 -13 -30 -13 -34 -1 -24 12 10 14 5 9 -31 -2 -23 -9 -48
-15 -55 -5 -7 -7 -16 -4 -21 3 -6 -1 -15 -9 -22 -10 -8 -12 -17 -6 -29 7 -11
2 -26 -17 -51 -18 -25 -20 -30 -6 -17 41 35 47 7 11 -51 -13 -20 -23 -44 -22
-52 1 -8 -11 -28 -26 -45 l-29 -30 -2 45 c-5 113 -5 114 27 149 29 33 29 34 3
15 -15 -10 -28 -22 -28 -26 0 -5 -5 -8 -11 -8 -7 0 -10 12 -7 29 2 17 1 28 -4
25 -19 -12 -6 55 17 86 29 39 29 41 13 38 -7 -2 -12 4 -10 12 2 10 -6 6 -22
-9 -29 -27 -26 -32 -32 54 -1 22 -7 41 -13 43 -6 2 -9 7 -6 12 2 4 -4 25 -15
46 -16 31 -19 34 -17 14z m265 -125 c-3 -3 -9 2 -12 12 -6 14 -5 15 5 6 7 -7
10 -15 7 -18z m-21 -107 c-3 -7 -5 -2 -5 12 0 14 2 19 5 13 2 -7 2 -19 0 -25z
m-20 -145 c-3 -10 -5 -4 -5 12 0 17 2 24 5 18 2 -7 2 -21 0 -30z m-140 -667
c-3 -8 1 -20 8 -26 13 -10 11 -16 -8 -40 -24 -30 -43 -30 -27 1 6 10 8 19 4
19 -3 0 -1 6 5 13 6 8 8 17 5 20 -3 3 -3 10 1 16 9 16 18 13 12 -3z m-87 -300
c0 -2 -8 -10 -17 -17 -16 -13 -17 -12 -4 4 13 16 21 21 21 13z"/>
<path d="M2399 878 c0 -2 -2 -11 -4 -21 -3 -15 -1 -16 11 -6 7 6 11 15 8 20
-5 9 -13 12 -15 7z"/>
<path d="M2200 1940 c0 -6 10 -31 21 -56 19 -40 24 -44 37 -31 10 11 12 23 7
44 -5 15 -9 31 -10 36 -6 21 -8 20 -15 -8 l-7 -30 -11 28 c-12 27 -22 36 -22
17z"/>
<path d="M2257 1833 c-4 -3 -7 -11 -7 -17 0 -6 5 -5 12 2 6 6 9 14 7 17 -3 3
-9 2 -12 -2z"/>
<path d="M2150 1791 c0 -5 -3 -16 -6 -25 -3 -9 -1 -16 5 -16 6 0 11 7 11 16 0
14 2 14 16 3 19 -15 47 -21 38 -8 -3 5 -10 7 -15 4 -5 -4 -12 0 -15 9 -6 16
-34 30 -34 17z"/>
<path d="M2260 1791 c0 -6 4 -13 10 -16 6 -3 7 1 4 9 -7 18 -14 21 -14 7z"/>
<path d="M2140 1721 c0 -5 -6 -11 -13 -13 -9 -2 -8 -8 5 -20 16 -16 18 -16 18
-2 0 8 5 12 11 8 8 -4 8 0 0 15 -12 22 -21 27 -21 12z"/>
<path d="M2290 1676 c0 -2 8 -10 18 -17 15 -13 16 -12 3 4 -13 16 -21 21 -21
13z"/>
<path d="M2662 1613 c8 -10 17 -25 20 -34 7 -18 -19 -77 -47 -111 -19 -22 -19
-22 8 1 19 17 27 20 27 10 1 -10 4 -10 14 4 12 16 14 16 20 2 3 -9 2 -13 -4
-10 -6 3 -10 -5 -10 -19 0 -14 -14 -41 -31 -61 -17 -19 -25 -33 -16 -30 27 11
27 -35 1 -86 -13 -27 -21 -49 -18 -49 4 0 0 -8 -7 -17 -11 -15 -11 -16 1 -5
19 16 35 16 24 -1 -5 -7 -1 -4 10 7 29 33 68 116 83 179 12 54 11 64 -7 125
-12 37 -30 77 -42 89 -25 27 -48 31 -26 6z m21 -108 c-3 -9 -8 -14 -10 -11 -3
3 -2 9 2 15 9 16 15 13 8 -4z m25 -98 c0 -13 -7 -24 -14 -24 -17 0 -18 19 -2
35 16 16 16 16 16 -11z"/>
<path d="M2025 1503 c4 -10 10 -26 12 -35 3 -10 10 -18 15 -18 5 0 6 -5 2 -12
-4 -7 -3 -8 4 -4 8 5 6 17 -8 40 -10 19 -16 37 -13 40 4 3 1 6 -6 6 -9 0 -11
-6 -6 -17z"/>
<path d="M2375 1420 c10 -11 20 -20 23 -20 3 0 -3 9 -13 20 -10 11 -20 20 -23
20 -3 0 3 -9 13 -20z"/>
<path d="M2544 1424 c-18 -14 -18 -15 4 -4 12 6 22 13 22 15 0 8 -5 6 -26 -11z"/>
<path d="M2500 1399 c0 -5 -4 -8 -9 -5 -4 3 -18 -5 -30 -18 -13 -13 -18 -26
-13 -30 5 -3 24 10 42 29 19 19 29 35 22 35 -7 0 -12 -5 -12 -11z m-10 -12 c0
-2 -10 -12 -22 -23 l-23 -19 19 23 c18 21 26 27 26 19z"/>
<path d="M2130 1376 c0 -2 8 -10 18 -17 15 -13 16 -12 3 4 -13 16 -21 21 -21
13z"/>
<path d="M2385 1370 c3 -5 8 -10 11 -10 2 0 4 5 4 10 0 6 -5 10 -11 10 -5 0
-7 -4 -4 -10z"/>
<path d="M2170 1336 c0 -2 8 -10 18 -17 15 -13 16 -12 3 4 -13 16 -21 21 -21
13z"/>
<path d="M2105 1300 c10 -11 20 -20 23 -20 3 0 -3 9 -13 20 -10 11 -20 20 -23
20 -3 0 3 -9 13 -20z"/>
<path d="M2061 1258 c-1 -47 2 -56 14 -52 8 4 12 11 8 18 -4 6 -10 29 -14 51
-6 38 -7 37 -8 -17z"/>
<path d="M2494 1268 l-19 -23 23 19 c21 18 27 26 19 26 -2 0 -12 -10 -23 -22z"/>
<path d="M2351 1216 c-9 -10 -8 -16 2 -25 8 -6 16 -8 19 -6 3 3 3 -5 1 -18 -3
-14 0 -28 6 -31 16 -11 14 69 -3 83 -10 8 -16 8 -25 -3z m19 -6 c0 -5 -5 -10
-11 -10 -5 0 -7 5 -4 10 3 6 8 10 11 10 2 0 4 -4 4 -10z"/>
<path d="M2075 1190 c-3 -5 -1 -18 5 -29 13 -25 13 -34 0 -26 -6 4 -10 -7 -10
-25 0 -17 4 -29 10 -25 5 3 7 12 4 19 -3 8 -1 17 4 20 11 6 45 -40 45 -61 0
-6 3 -11 7 -10 3 1 19 -11 34 -28 15 -16 6 -1 -19 35 -57 80 -78 118 -70 130
3 6 4 10 1 10 -3 0 -8 -4 -11 -10z"/>
<path d="M2648 1108 c-18 -33 -20 -58 -3 -35 10 14 14 15 18 5 3 -7 6 2 6 20
1 38 -4 40 -21 10z"/>
<path d="M2571 1101 c-6 -11 -7 -22 -2 -25 5 -3 11 4 14 16 8 30 1 35 -12 9z"/>
<path d="M2479 1073 l-24 -28 28 24 c25 23 32 31 24 31 -2 0 -14 -12 -28 -27z"/>
<path d="M2346 1077 c3 -10 9 -15 12 -12 3 3 0 11 -7 18 -10 9 -11 8 -5 -6z"/>
<path d="M2075 1053 c4 -10 12 -31 18 -48 14 -40 47 -93 47 -77 0 7 5 10 12 6
7 -4 8 -3 4 5 -4 6 -11 9 -16 6 -11 -7 -32 54 -23 68 3 6 1 7 -5 3 -7 -4 -13
-2 -13 3 -1 6 -3 16 -4 21 -1 6 -3 15 -4 20 0 6 -6 10 -12 10 -7 0 -8 -7 -4
-17z"/>
<path d="M2645 1050 c-3 -5 -1 -10 4 -10 6 0 11 5 11 10 0 6 -2 10 -4 10 -3 0
-8 -4 -11 -10z"/>
<path d="M2361 1034 c0 -11 3 -14 6 -6 3 7 2 16 -1 19 -3 4 -6 -2 -5 -13z"/>
<path d="M2556 1014 c-23 -23 -20 -30 4 -9 11 10 20 20 20 22 0 7 -9 2 -24
-13z"/>
<path d="M2357 950 c-4 -34 -11 -69 -16 -78 -5 -9 -5 -26 -1 -37 5 -14 11 2
19 55 7 41 14 85 17 98 2 12 0 22 -4 22 -5 0 -12 -27 -15 -60z"/>
<path d="M2210 976 c0 -2 8 -10 18 -17 15 -13 16 -12 3 4 -13 16 -21 21 -21
13z"/>
<path d="M2051 923 c0 -16 3 -22 6 -15 2 6 9 12 14 12 6 0 8 -4 5 -8 -3 -5 2
-9 10 -9 11 0 9 6 -8 24 -27 29 -28 29 -27 -4z"/>
<path d="M2265 906 c10 -14 19 -26 22 -26 7 0 -17 39 -28 46 -6 3 -3 -5 6 -20z"/>
<path d="M2160 911 c0 -7 -5 -9 -12 -5 -7 4 -8 3 -4 -5 4 -6 12 -9 17 -5 5 3
18 -5 29 -18 11 -13 19 -18 20 -12 0 6 -11 21 -25 34 -14 13 -25 18 -25 11z"/>
<path d="M2675 822 l-29 -37 34 30 c19 16 39 33 45 37 5 5 3 8 -5 7 -8 0 -28
-17 -45 -37z"/>
<path d="M2612 761 c-8 -4 -12 -11 -10 -15 1 -4 -8 -14 -22 -21 -14 -8 -21
-14 -17 -15 16 0 47 21 57 40 12 22 11 23 -8 11z"/>
<path d="M2386 711 c-4 -5 3 -7 14 -4 23 6 26 13 6 13 -8 0 -17 -4 -20 -9z"/>
<path d="M2227 571 c-4 -17 -3 -21 5 -13 5 5 8 16 6 23 -3 8 -7 3 -11 -10z"/>
<path d="M2433 543 c9 -2 25 -2 35 0 9 3 1 5 -18 5 -19 0 -27 -2 -17 -5z"/>
<path d="M2551 531 c-9 -6 -6 -10 10 -14 28 -8 34 -3 16 11 -7 6 -19 7 -26 3z"/>
<path d="M2129 403 c-13 -16 -12 -17 4 -4 16 13 21 21 13 21 -2 0 -10 -8 -17
-17z"/>
<path d="M2080 330 c-9 -6 -10 -10 -3 -10 6 0 15 5 18 10 8 12 4 12 -15 0z"/>
<path d="M2040 300 c-9 -6 -10 -10 -3 -10 6 0 15 5 18 10 8 12 4 12 -15 0z"/>
</g>
</svg>
