<?xml version="1.0" standalone="no"?>
<!DOCTYPE svg PUBLIC "-//W3C//DTD SVG 20010904//EN"
 "http://www.w3.org/TR/2001/REC-SVG-20010904/DTD/svg10.dtd">
<svg version="1.0" xmlns="http://www.w3.org/2000/svg"
 width="500.000000pt" height="500.000000pt" viewBox="0 0 500.000000 500.000000"
 preserveAspectRatio="xMidYMid meet">

<g transform="translate(0.000000,500.000000) scale(0.100000,-0.100000)"
fill="#000000" stroke="none">
<path d="M3060 3551 c0 -6 4 -13 10 -16 6 -3 7 1 4 9 -7 18 -14 21 -14 7z"/>
<path d="M2610 3474 c-366 -78 -791 -467 -1046 -957 l-64 -122 7 156 c7 170 3
203 -26 219 -34 18 -74 -30 -147 -173 -37 -73 -68 -134 -70 -136 -13 -15 -10
30 15 234 38 302 43 355 31 355 -18 0 -23 -24 -46 -223 -46 -400 -48 -418 -33
-428 7 -4 19 -3 25 2 7 6 49 82 95 169 123 240 133 239 125 -10 -3 -91 -9
-174 -12 -185 -3 -14 -25 -29 -62 -43 -59 -24 -117 -61 -94 -62 7 0 44 16 83
36 l71 35 -7 -50 c-10 -73 16 -69 45 7 13 31 26 60 29 64 12 14 236 68 342 83
116 16 333 20 327 6 -1 -5 -25 -24 -52 -43 -65 -43 -76 -62 -53 -85 10 -10 39
-25 64 -34 l47 -15 -110 -43 c-123 -48 -487 -171 -492 -166 -2 1 20 48 47 104
28 55 51 103 51 106 0 3 -6 5 -12 5 -7 0 -41 -53 -75 -118 -58 -111 -64 -118
-104 -133 -50 -18 -63 -39 -25 -39 15 0 26 -6 26 -13 0 -8 -32 -80 -70 -160
-39 -80 -70 -148 -70 -151 0 -3 4 -6 10 -6 5 0 46 72 90 160 l80 160 64 0 c82
0 228 -26 282 -49 23 -11 50 -30 59 -44 15 -23 15 -28 1 -55 -26 -49 -94 -100
-218 -162 l-117 -57 -123 -7 c-251 -14 -452 -47 -472 -78 -17 -28 1 -33 102
-32 104 1 275 30 401 68 100 31 190 37 427 29 187 -6 195 -7 190 -26 -4 -18
-1 -19 52 -12 31 3 71 11 88 17 22 8 74 8 185 -1 85 -6 165 -12 179 -12 17 -1
13 -4 -15 -10 -30 -6 -21 -7 32 -3 39 2 74 0 78 -5 9 -15 -87 -124 -147 -166
-71 -51 -80 -61 -38 -40 19 10 76 60 127 111 60 61 99 94 113 94 13 0 20 -5
17 -12 -28 -68 -49 -150 -41 -157 5 -6 10 3 11 25 3 53 48 144 72 144 11 0 23
5 26 10 3 6 -3 10 -14 10 -12 0 -21 2 -21 5 0 3 34 78 75 168 41 89 75 166 75
171 0 6 -23 -27 -51 -72 -27 -45 -48 -86 -45 -91 4 -5 -11 -48 -31 -95 -32
-73 -41 -86 -61 -86 -26 0 -29 -5 41 98 27 41 47 76 44 78 -2 2 -28 -31 -57
-75 -28 -44 -58 -85 -64 -90 -9 -7 -85 -4 -242 9 -126 11 -253 20 -283 20 -38
0 -52 3 -48 13 2 6 39 71 80 142 72 124 75 130 55 138 -36 13 -73 -2 -121 -49
-49 -47 -71 -50 -61 -8 5 18 2 24 -9 24 -9 0 -18 -4 -22 -10 -3 -5 -19 -19
-35 -30 -41 -30 -41 -2 1 39 24 25 36 30 57 25 26 -6 26 -6 9 12 -17 18 -18
18 -54 -1 -21 -11 -48 -35 -60 -54 -21 -30 -22 -37 -9 -49 13 -13 20 -12 55 5
34 17 41 18 46 5 3 -9 15 -13 35 -10 18 3 31 0 34 -8 3 -7 16 -14 30 -16 l26
-3 -47 -80 c-27 -44 -51 -79 -55 -77 -5 1 -109 2 -233 2 -124 0 -225 4 -225 8
0 4 30 23 68 41 142 70 232 150 232 206 0 61 -115 108 -312 127 -179 17 -175
20 137 124 203 67 433 156 493 190 46 27 78 67 67 84 -4 6 3 40 15 75 19 57
27 68 60 85 21 11 41 24 45 30 9 15 -2 12 -31 -6 -32 -22 -39 -13 -24 31 7 20
9 39 6 43 -4 3 -27 -17 -52 -46 -25 -29 -50 -52 -55 -52 -12 0 -11 47 1 71 18
32 0 22 -44 -26 -42 -45 -66 -57 -66 -32 1 10 38 100 116 275 12 26 12 32 1
32 -7 0 -40 -48 -73 -107 -56 -101 -61 -108 -96 -114 -42 -6 -83 -31 -97 -58
-10 -19 -68 -48 -77 -39 -2 3 0 17 6 32 12 33 -8 45 -46 27 -32 -14 -34 -14
-34 7 0 12 -9 7 -34 -20 -47 -52 -92 -73 -123 -59 -34 16 -24 35 20 39 41 4
71 37 46 53 -36 22 -109 -26 -109 -73 0 -34 35 -46 92 -31 23 6 41 7 44 1 3
-5 24 6 47 25 68 55 71 55 63 13 -7 -34 -6 -36 21 -36 16 0 38 7 50 15 19 13
21 13 26 -5 9 -34 52 -25 97 20 l40 40 0 -30 c0 -38 19 -46 59 -25 21 10 31
12 31 4 0 -8 15 -10 45 -7 25 3 45 4 45 1 0 -2 -32 -19 -71 -38 l-71 -34 -151
0 c-167 0 -314 -18 -464 -57 -53 -14 -98 -23 -100 -20 -9 8 91 189 165 300
102 153 201 272 328 397 236 229 458 351 669 366 149 10 284 -40 401 -149 38
-36 64 -54 64 -45 0 25 -128 135 -194 167 -122 59 -234 73 -366 44z m-410
-852 c0 -15 -88 -94 -94 -84 -16 26 35 92 71 92 13 0 23 -4 23 -8z m-372 -14
c-3 -7 -15 -15 -28 -16 -21 -3 -22 -2 -11 12 16 19 44 21 39 4z m552 -107 c0
-4 -5 -22 -11 -38 l-10 -31 -40 16 -41 16 44 22 c47 25 58 28 58 15z m-62 -77
c26 -17 28 -36 6 -70 -32 -49 -114 -69 -179 -44 -56 21 -39 60 50 111 53 31
79 31 123 3z m-3 -563 c-15 -29 -60 -71 -76 -71 -13 0 -10 33 4 50 17 22 59
50 74 50 11 0 10 -6 -2 -29z m-810 -280 c-13 -12 -129 -40 -235 -57 -146 -24
-262 -14 -178 15 34 12 225 38 318 44 30 2 66 4 80 5 14 1 20 -2 15 -7z m740
-1 c15 -7 10 -9 -23 -9 -26 -1 -41 3 -37 9 7 12 32 12 60 0z"/>
<path d="M3370 3240 c0 -5 5 -10 11 -10 5 0 7 5 4 10 -3 6 -8 10 -11 10 -2 0
-4 -4 -4 -10z"/>
<path d="M3137 3209 c4 -13 8 -18 11 -10 2 7 -1 18 -6 23 -8 8 -9 4 -5 -13z"/>
<path d="M3220 3221 c0 -6 4 -13 10 -16 6 -3 7 1 4 9 -7 18 -14 21 -14 7z"/>
<path d="M3110 3180 c0 -5 5 -10 11 -10 5 0 7 5 4 10 -3 6 -8 10 -11 10 -2 0
-4 -4 -4 -10z"/>
<path d="M3151 3156 c-1 -15 -4 -16 -15 -6 -13 10 -13 8 -3 -14 12 -24 12 -24
20 -4 4 12 6 26 3 32 -2 6 -5 3 -5 -8z"/>
<path d="M3243 3143 c4 -6 8 -26 11 -45 4 -31 2 -35 -14 -31 -10 3 -16 11 -14
18 6 14 -14 31 -24 20 -3 -3 0 -10 8 -15 8 -6 11 -10 5 -10 -5 0 1 -10 15 -23
14 -12 20 -18 13 -13 -8 5 -16 7 -18 4 -7 -7 36 -53 46 -50 5 1 7 -9 5 -23 -3
-14 0 -25 5 -25 5 0 9 -9 9 -20 0 -11 4 -20 9 -20 6 0 6 12 -1 31 -9 25 -7 34
9 52 34 38 35 45 3 42 -31 -3 -33 0 -45 67 -3 21 -11 40 -17 44 -6 4 -8 3 -5
-3z"/>
<path d="M3451 3133 c-1 -12 3 -24 7 -27 8 -4 -8 -93 -26 -146 -3 -8 -6 -23
-7 -32 -1 -10 -10 -27 -21 -39 -19 -22 -19 -22 4 -8 12 8 22 18 22 24 1 5 7
24 14 40 13 29 13 29 9 -20 -2 -27 -5 -68 -8 -90 l-3 -40 21 40 c73 138 87
229 42 278 -33 35 -39 34 -20 -3 8 -16 15 -35 14 -42 0 -7 -11 10 -24 37 -17
35 -24 43 -24 28z m33 -119 c9 -24 7 -31 -4 -14 -8 13 -10 12 -10 -2 0 -10 -5
-18 -11 -18 -6 0 -8 7 -5 16 3 9 6 20 6 25 0 15 17 10 24 -7z"/>
<path d="M3033 2985 c-7 -8 -9 -16 -4 -19 5 -3 12 1 15 10 8 22 4 25 -11 9z"/>
<path d="M3570 2873 c17 -24 19 -34 11 -56 -11 -28 -5 -61 9 -52 5 3 12 0 16
-6 3 -6 0 -15 -7 -20 -7 -4 -10 -11 -6 -15 4 -4 2 -13 -5 -21 -8 -11 -7 -12 6
-7 10 4 16 1 17 -7 3 -66 16 -69 24 -7 10 80 -23 186 -66 209 -21 11 -21 10 1
-18z"/>
<path d="M3300 2847 c0 -15 4 -27 10 -27 5 0 9 9 7 20 -5 31 -17 36 -17 7z"/>
<path d="M3407 2826 c-14 -20 -16 -31 -8 -39 8 -8 2 -21 -21 -47 -27 -28 -24
-27 10 6 37 35 43 46 40 75 l-3 33 -18 -28z"/>
<path d="M3309 2634 c-1 -98 -3 -188 -4 -200 -1 -12 -5 -54 -9 -95 -13 -134
-36 -252 -72 -362 -42 -125 -42 -152 0 -39 15 42 33 89 38 104 6 15 15 26 21
25 6 -1 15 8 22 19 6 12 17 30 25 40 14 18 14 18 -4 4 -10 -8 -22 -25 -27 -38
-5 -13 -13 -20 -19 -17 -13 8 -2 55 18 78 14 16 14 17 0 12 -14 -5 -15 0 -7
39 4 25 11 72 14 103 11 116 17 148 37 178 l20 30 -21 -24 -21 -23 0 49 c0 27
6 55 13 62 8 9 8 12 0 7 -8 -4 -11 23 -11 104 0 61 -2 114 -6 117 -3 4 -7 -74
-7 -173z"/>
<path d="M2920 2789 c0 -4 7 -22 15 -40 8 -19 14 -27 14 -19 0 14 -28 72 -29
59z"/>
<path d="M3286 2727 c3 -10 9 -15 12 -12 3 3 0 11 -7 18 -10 9 -11 8 -5 -6z"/>
<path d="M3554 2658 c-10 -12 -14 -18 -7 -15 16 10 26 -43 14 -75 -5 -14 -7
-29 -4 -32 4 -3 1 -6 -5 -6 -15 0 -15 -27 0 -36 6 -4 8 -3 5 3 -4 6 0 13 8 17
9 3 15 19 16 43 0 27 3 32 8 20 6 -17 8 -16 19 7 14 31 7 53 -20 62 -11 3 -17
12 -14 20 8 20 2 18 -20 -8z"/>
<path d="M2961 2523 c-1 -12 4 -25 9 -28 12 -7 12 2 0 30 -8 19 -9 19 -9 -2z"/>
<path d="M3273 2449 c-1 -17 2 -27 7 -24 12 7 13 42 3 48 -5 3 -9 -8 -10 -24z"/>
<path d="M2972 2390 c0 -14 2 -19 5 -12 2 6 2 18 0 25 -3 6 -5 1 -5 -13z"/>
<path d="M3552 2379 c-7 -11 -11 -23 -9 -25 7 -7 29 24 25 36 -2 6 -9 1 -16
-11z"/>
<path d="M2977 2319 c4 -13 8 -18 11 -10 2 7 -1 18 -6 23 -8 8 -9 4 -5 -13z"/>
<path d="M2990 2285 c0 -9 30 -65 35 -65 7 0 -16 60 -26 66 -5 3 -9 2 -9 -1z"/>
<path d="M3262 2235 c0 -16 2 -22 5 -12 2 9 2 23 0 30 -3 6 -5 -1 -5 -18z"/>
<path d="M2950 2210 c0 -5 5 -10 11 -10 5 0 7 5 4 10 -3 6 -8 10 -11 10 -2 0
-4 -4 -4 -10z"/>
<path d="M3251 2184 c0 -11 3 -14 6 -6 3 7 2 16 -1 19 -3 4 -6 -2 -5 -13z"/>
<path d="M3242 2120 c0 -14 2 -19 5 -12 2 6 2 18 0 25 -3 6 -5 1 -5 -13z"/>
<path d="M3600 2120 c0 -5 7 -7 15 -4 8 4 15 8 15 10 0 2 -7 4 -15 4 -8 0 -15
-4 -15 -10z"/>
<path d="M3210 2048 c0 -7 -2 -31 -5 -53 l-5 -40 14 35 c17 42 20 70 6 70 -5
0 -10 -6 -10 -12z"/>
<path d="M3181 1974 c0 -11 3 -14 6 -6 3 7 2 16 -1 19 -3 4 -6 -2 -5 -13z"/>
<path d="M2672 1948 c-14 -14 -16 -42 -2 -33 14 9 32 45 22 45 -4 0 -13 -5
-20 -12z"/>
<path d="M3180 1931 c0 -25 6 -27 13 -6 4 8 2 17 -3 20 -6 4 -10 -3 -10 -14z"/>
<path d="M2377 1863 c-10 -21 -18 -49 -20 -63 -3 -35 32 -38 71 -6 34 30 42
32 42 12 0 -23 31 -27 64 -8 30 17 32 17 49 0 9 -10 31 -18 47 -18 37 0 105
33 113 55 8 20 -7 19 -24 -2 -35 -42 -119 -50 -119 -12 0 15 7 19 33 19 43 0
75 31 53 49 -19 16 -80 -2 -99 -29 -7 -10 -29 -28 -50 -40 -41 -24 -46 -18
-26 39 6 18 8 35 5 38 -4 4 -33 -20 -66 -52 -33 -32 -62 -56 -66 -52 -4 4 1
26 10 50 18 49 19 57 8 57 -5 0 -16 -17 -25 -37z m291 5 c-5 -16 -48 -24 -48
-10 0 11 17 20 38 21 8 1 12 -5 10 -11z"/>
<path d="M3150 1874 c0 -8 5 -12 10 -9 6 4 8 11 5 16 -9 14 -15 11 -15 -7z"/>
<path d="M3175 1840 c-3 -6 1 -7 9 -4 18 7 21 14 7 14 -6 0 -13 -4 -16 -10z"/>
<path d="M3157 1806 c-4 -10 -1 -13 8 -9 8 3 12 9 9 14 -7 12 -11 11 -17 -5z"/>
<path d="M3338 1813 c7 -3 16 -2 19 1 4 3 -2 6 -13 5 -11 0 -14 -3 -6 -6z"/>
<path d="M3102 1728 c-23 -29 -57 -68 -77 -86 -19 -19 -33 -37 -30 -41 2 -4
-1 -8 -8 -8 -18 0 -89 -44 -82 -51 3 -3 19 4 35 16 45 34 52 27 27 -30 -13
-29 -22 -59 -20 -65 6 -16 45 -17 61 -1 8 8 12 8 12 1 0 -12 78 -14 86 -2 3 5
-2 6 -12 2 -13 -5 -15 -2 -9 18 l7 24 -21 -22 c-12 -13 -26 -23 -32 -23 -6 0
-7 9 -3 23 l6 22 -24 -22 c-25 -24 -58 -31 -58 -12 0 27 44 109 59 110 10 0
11 2 4 6 -21 8 -15 20 35 75 49 55 97 118 89 118 -3 0 -23 -24 -45 -52z"/>
<path d="M2523 1533 c9 -2 23 -2 30 0 6 3 -1 5 -18 5 -16 0 -22 -2 -12 -5z"/>
<path d="M2468 1523 c7 -3 16 -2 19 1 4 3 -2 6 -13 5 -11 0 -14 -3 -6 -6z"/>
<path d="M2418 1513 c7 -3 16 -2 19 1 4 3 -2 6 -13 5 -11 0 -14 -3 -6 -6z"/>
<path d="M3136 1498 c-16 -23 -13 -38 9 -38 9 0 11 -8 6 -33 -16 -71 -52 -104
-98 -92 -19 4 -24 11 -20 27 4 15 3 18 -5 10 -16 -16 -2 -41 27 -48 37 -9 73
19 102 82 13 30 30 54 36 54 9 0 9 2 0 8 -8 5 -9 13 -3 22 15 23 12 30 -14 30
-14 0 -32 -9 -40 -22z m44 3 c0 -11 -29 -35 -35 -29 -10 9 7 38 21 38 8 0 14
-4 14 -9z"/>
<path d="M3284 1501 c8 -13 -10 -41 -26 -41 -6 0 -8 9 -5 19 3 14 1 18 -9 14
-10 -4 -11 -10 -3 -24 11 -22 14 -23 40 -9 21 12 25 35 7 46 -7 4 -8 3 -4 -5z"/>
<path d="M3416 1491 c-21 -23 -13 -41 17 -40 18 1 19 2 4 6 -11 3 -16 10 -13
20 3 8 6 17 6 19 0 2 5 4 11 4 5 0 7 -5 3 -12 -4 -7 -3 -8 4 -4 7 4 12 11 12
17 0 16 -26 10 -44 -10z"/>
<path d="M2325 1483 c-96 -50 -106 -116 -25 -162 21 -11 42 -21 46 -21 5 1 -4
8 -21 17 -47 24 -65 44 -65 70 0 39 17 61 68 88 26 13 43 24 37 24 -5 0 -23
-7 -40 -16z"/>
<path d="M2849 1478 c-15 -28 -10 -30 18 -8 25 20 28 20 33 4 6 -16 7 -15 12
4 5 18 2 21 -24 19 -16 -1 -34 -10 -39 -19z"/>
<path d="M3309 1478 c-15 -28 -10 -30 18 -8 25 20 28 20 33 4 6 -16 7 -15 12
4 5 18 2 21 -24 19 -16 -1 -34 -10 -39 -19z"/>
<path d="M3094 1414 c-18 -14 -18 -15 4 -4 12 6 22 13 22 15 0 8 -5 6 -26 -11z"/>
<path d="M2388 1293 c12 -2 32 -2 45 0 12 2 2 4 -23 4 -25 0 -35 -2 -22 -4z"/>
</g>
</svg>
